<svg width="217" height="216" viewBox="0 0 217 216" fill="none" xmlns="http://www.w3.org/2000/svg">
<path fill-rule="evenodd" clip-rule="evenodd" d="M65.5 166H91.5V168H65.5V166Z" fill="#37415C"/>
<path fill-rule="evenodd" clip-rule="evenodd" d="M125.5 166H151.5V168H125.5V166Z" fill="#37415C"/>
<path fill-rule="evenodd" clip-rule="evenodd" d="M49.5 66L49.5 94L47.5 94L47.5 66L49.5 66Z" fill="#37415C"/>
<path d="M66.5 168C66.5 177.941 58.4411 186 48.5 186C38.5589 186 30.5 177.941 30.5 168C30.5 158.059 38.5589 150 48.5 150C58.4411 150 66.5 158.059 66.5 168Z" fill="white"/>
<path fill-rule="evenodd" clip-rule="evenodd" d="M48.5 184C57.3366 184 64.5 176.837 64.5 168C64.5 159.163 57.3366 152 48.5 152C39.6634 152 32.5 159.163 32.5 168C32.5 176.837 39.6634 184 48.5 184ZM48.5 186C58.4411 186 66.5 177.941 66.5 168C66.5 158.059 58.4411 150 48.5 150C38.5589 150 30.5 158.059 30.5 168C30.5 177.941 38.5589 186 48.5 186Z" fill="#37415C"/>
<path d="M126.5 168C126.5 177.941 118.441 186 108.5 186C98.5589 186 90.5 177.941 90.5 168C90.5 158.059 98.5589 150 108.5 150C118.441 150 126.5 158.059 126.5 168Z" fill="white"/>
<path fill-rule="evenodd" clip-rule="evenodd" d="M108.5 184C117.337 184 124.5 176.837 124.5 168C124.5 159.163 117.337 152 108.5 152C99.6634 152 92.5 159.163 92.5 168C92.5 176.837 99.6634 184 108.5 184ZM108.5 186C118.441 186 126.5 177.941 126.5 168C126.5 158.059 118.441 150 108.5 150C98.5589 150 90.5 158.059 90.5 168C90.5 177.941 98.5589 186 108.5 186Z" fill="#37415C"/>
<path d="M66.5 108C66.5 117.941 58.4411 126 48.5 126C38.5589 126 30.5 117.941 30.5 108C30.5 98.0589 38.5589 90 48.5 90C58.4411 90 66.5 98.0589 66.5 108Z" fill="white"/>
<path fill-rule="evenodd" clip-rule="evenodd" d="M48.5 124C57.3366 124 64.5 116.837 64.5 108C64.5 99.1634 57.3366 92 48.5 92C39.6634 92 32.5 99.1634 32.5 108C32.5 116.837 39.6634 124 48.5 124ZM48.5 126C58.4411 126 66.5 117.941 66.5 108C66.5 98.0589 58.4411 90 48.5 90C38.5589 90 30.5 98.0589 30.5 108C30.5 117.941 38.5589 126 48.5 126Z" fill="#37415C"/>
<circle cx="48.5" cy="48" r="18" fill="#37415C"/>
<circle cx="168.5" cy="168" r="18" fill="#37415C"/>
<path fill-rule="evenodd" clip-rule="evenodd" d="M49.5 124L49.5 152L47.5 152L47.5 124L49.5 124Z" fill="#37415C"/>
</svg>
