<svg width="640" height="511" viewBox="0 0 640 511" fill="none" xmlns="http://www.w3.org/2000/svg">
<path d="M16 246L159 2L296 246H16Z" fill="white" stroke="#37415C" stroke-width="2"/>
<path d="M116.216 75L158.929 2L200 75H116.216Z" fill="white" stroke="#37415C" stroke-width="2"/>
<path d="M16 246L58.9289 173L100 246H16Z" fill="white" stroke="#37415C" stroke-width="2"/>
<path d="M212 246L254.929 173L296 246H212Z" fill="white" stroke="#37415C" stroke-width="2"/>
<path d="M158.021 55.2386C156.851 55.2386 155.805 55.0369 154.885 54.6335C153.97 54.2301 153.246 53.6705 152.712 52.9545C152.183 52.233 151.899 51.3977 151.859 50.4489H154.536C154.57 50.9659 154.743 51.4148 155.055 51.7955C155.374 52.1705 155.788 52.4602 156.3 52.6648C156.811 52.8693 157.379 52.9716 158.004 52.9716C158.692 52.9716 159.3 52.8523 159.828 52.6136C160.362 52.375 160.78 52.0426 161.081 51.6165C161.382 51.1847 161.533 50.6875 161.533 50.125C161.533 49.5398 161.382 49.0256 161.081 48.5824C160.786 48.1335 160.351 47.7812 159.777 47.5256C159.209 47.2699 158.521 47.142 157.714 47.142H156.24V44.9943H157.714C158.362 44.9943 158.93 44.8778 159.419 44.6449C159.913 44.4119 160.3 44.0881 160.578 43.6733C160.857 43.2528 160.996 42.7614 160.996 42.1989C160.996 41.6591 160.874 41.1903 160.629 40.7926C160.391 40.3892 160.05 40.0739 159.607 39.8466C159.169 39.6193 158.652 39.5057 158.055 39.5057C157.487 39.5057 156.956 39.6108 156.462 39.821C155.973 40.0256 155.575 40.321 155.268 40.7074C154.962 41.0881 154.797 41.5455 154.774 42.0795H152.226C152.254 41.1364 152.533 40.3068 153.061 39.5909C153.595 38.875 154.3 38.3153 155.175 37.9119C156.05 37.5085 157.021 37.3068 158.089 37.3068C159.209 37.3068 160.175 37.5256 160.987 37.9631C161.805 38.3949 162.436 38.9716 162.879 39.6932C163.328 40.4148 163.55 41.2045 163.544 42.0625C163.55 43.0398 163.277 43.8693 162.726 44.5511C162.18 45.233 161.453 45.6903 160.544 45.9233V46.0597C161.703 46.2358 162.601 46.696 163.237 47.4403C163.879 48.1847 164.197 49.108 164.192 50.2102C164.197 51.1705 163.93 52.0312 163.391 52.7926C162.857 53.554 162.126 54.1534 161.2 54.5909C160.274 55.0227 159.214 55.2386 158.021 55.2386Z" fill="#37415C"/>
<path d="M57.9947 227.239C56.7731 227.239 55.6935 227.028 54.756 226.608C53.8242 226.187 53.0941 225.608 52.5657 224.869C52.0373 224.131 51.7759 223.29 51.7816 222.347C51.7759 221.608 51.9265 220.929 52.2333 220.31C52.5458 219.685 52.9691 219.165 53.5032 218.75C54.0373 218.33 54.6339 218.062 55.293 217.949V217.847C54.4237 217.636 53.7276 217.17 53.2049 216.449C52.6822 215.727 52.4237 214.898 52.4293 213.96C52.4237 213.068 52.6594 212.273 53.1367 211.574C53.6197 210.869 54.2816 210.315 55.1225 209.912C55.9634 209.509 56.9208 209.307 57.9947 209.307C59.0572 209.307 60.006 209.511 60.8413 209.92C61.6822 210.324 62.3441 210.878 62.8271 211.582C63.31 212.281 63.5543 213.074 63.56 213.96C63.5543 214.898 63.2873 215.727 62.7589 216.449C62.2305 217.17 61.543 217.636 60.6964 217.847V217.949C61.3498 218.062 61.9379 218.33 62.4606 218.75C62.989 219.165 63.4094 219.685 63.7219 220.31C64.0401 220.929 64.2021 221.608 64.2077 222.347C64.2021 223.29 63.935 224.131 63.4066 224.869C62.8782 225.608 62.1452 226.187 61.2077 226.608C60.2759 227.028 59.2049 227.239 57.9947 227.239ZM57.9947 225.082C58.7163 225.082 59.3413 224.963 59.8697 224.724C60.3981 224.48 60.8072 224.142 61.0969 223.71C61.3867 223.273 61.5344 222.761 61.5401 222.176C61.5344 221.568 61.3754 221.031 61.0629 220.565C60.756 220.099 60.3384 219.733 59.81 219.466C59.2816 219.199 58.6765 219.065 57.9947 219.065C57.3072 219.065 56.6964 219.199 56.1623 219.466C55.6282 219.733 55.2077 220.099 54.9009 220.565C54.5941 221.031 54.4435 221.568 54.4492 222.176C54.4435 222.761 54.5827 223.273 54.8668 223.71C55.1566 224.142 55.5685 224.48 56.1026 224.724C56.6367 224.963 57.2674 225.082 57.9947 225.082ZM57.9947 216.96C58.5742 216.96 59.0884 216.844 59.5373 216.611C59.9862 216.378 60.3384 216.054 60.5941 215.639C60.8555 215.224 60.989 214.739 60.9947 214.182C60.989 213.636 60.8583 213.159 60.6026 212.75C60.3526 212.341 60.0032 212.026 59.5543 211.804C59.1055 211.577 58.5856 211.463 57.9947 211.463C57.3924 211.463 56.864 211.577 56.4094 211.804C55.9606 212.026 55.6112 212.341 55.3612 212.75C55.1112 213.159 54.989 213.636 54.9947 214.182C54.989 214.739 55.114 215.224 55.3697 215.639C55.6254 216.054 55.9776 216.378 56.4265 216.611C56.881 216.844 57.4038 216.96 57.9947 216.96Z" fill="#37415C"/>
<path d="M247.461 223.591V221.46L255.004 209.545H256.683V212.682H255.617L250.222 221.222V221.358H260.56V223.591H247.461ZM255.737 227V222.943L255.754 221.972V209.545H258.251V227H255.737Z" fill="#37415C"/>
<path d="M143.609 160.591V158.46L151.152 146.545H152.831V149.682H151.766L146.371 158.222V158.358H156.709V160.591H143.609ZM151.885 164V159.943L151.902 158.972V146.545H154.399V164H151.885ZM159.312 160.591V158.46L166.855 146.545H168.534V149.682H167.469L162.074 158.222V158.358H172.412V160.591H159.312ZM167.588 164V159.943L167.605 158.972V146.545H170.102V164H167.588Z" fill="#37415C"/>
<path d="M344 246L487 2L624 246H344Z" fill="white" stroke="#37415C" stroke-width="2"/>
<path d="M444.216 75L486.929 2L528 75H444.216Z" fill="white" stroke="#37415C" stroke-width="2"/>
<path d="M344 246L386.929 173L428 246H344Z" fill="white" stroke="#37415C" stroke-width="2"/>
<path d="M540 246L582.929 173L624 246H540Z" fill="white" stroke="#37415C" stroke-width="2"/>
<path d="M485.854 37.3068C486.632 37.3125 487.4 37.4545 488.155 37.733C488.911 38.0114 489.593 38.4659 490.201 39.0966C490.814 39.7273 491.303 40.5795 491.667 41.6534C492.036 42.7216 492.223 44.0511 492.229 45.642C492.229 47.1705 492.076 48.5312 491.769 49.7244C491.462 50.9119 491.022 51.9148 490.448 52.733C489.88 53.5511 489.189 54.1733 488.377 54.5994C487.564 55.0256 486.65 55.2386 485.632 55.2386C484.593 55.2386 483.669 55.0341 482.863 54.625C482.056 54.2159 481.4 53.6506 480.894 52.929C480.388 52.2017 480.073 51.3665 479.948 50.4233H482.547C482.718 51.1733 483.064 51.7812 483.587 52.2472C484.115 52.7074 484.797 52.9375 485.632 52.9375C486.911 52.9375 487.908 52.3807 488.624 51.267C489.34 50.1477 489.701 48.5852 489.706 46.5795H489.57C489.275 47.0682 488.905 47.4886 488.462 47.8409C488.025 48.1932 487.533 48.4659 486.988 48.6591C486.442 48.8523 485.86 48.9489 485.24 48.9489C484.235 48.9489 483.32 48.7017 482.496 48.2074C481.672 47.7131 481.016 47.0341 480.527 46.1705C480.039 45.3068 479.794 44.321 479.794 43.2131C479.794 42.1108 480.044 41.1108 480.544 40.2131C481.05 39.3153 481.755 38.6051 482.658 38.0824C483.567 37.554 484.632 37.2955 485.854 37.3068ZM485.863 39.5227C485.198 39.5227 484.598 39.6875 484.064 40.017C483.536 40.3409 483.118 40.7812 482.811 41.3381C482.505 41.8892 482.351 42.5028 482.351 43.179C482.351 43.8551 482.499 44.4687 482.794 45.0199C483.096 45.5653 483.505 46 484.022 46.3239C484.544 46.642 485.141 46.8011 485.811 46.8011C486.311 46.8011 486.777 46.7045 487.209 46.5114C487.641 46.3182 488.019 46.0511 488.343 45.7102C488.667 45.3636 488.919 44.9716 489.101 44.5341C489.283 44.0966 489.374 43.6364 489.374 43.1534C489.374 42.5114 489.221 41.9148 488.914 41.3636C488.613 40.8125 488.198 40.3693 487.669 40.0341C487.141 39.6932 486.539 39.5227 485.863 39.5227Z" fill="#37415C"/>
<path d="M381.318 227L388.937 211.932V211.804H380.125V209.545H391.664V211.881L384.071 227H381.318Z" fill="#37415C"/>
<path d="M576.82 227V225.091L582.726 218.972C583.357 218.307 583.876 217.724 584.286 217.224C584.7 216.719 585.01 216.239 585.214 215.784C585.419 215.33 585.521 214.847 585.521 214.335C585.521 213.756 585.385 213.256 585.112 212.835C584.839 212.409 584.467 212.082 583.996 211.855C583.524 211.622 582.993 211.506 582.402 211.506C581.777 211.506 581.232 211.634 580.766 211.889C580.3 212.145 579.942 212.506 579.692 212.972C579.442 213.437 579.317 213.983 579.317 214.608H576.803C576.803 213.545 577.047 212.616 577.536 211.821C578.024 211.026 578.695 210.409 579.547 209.972C580.399 209.528 581.368 209.307 582.453 209.307C583.55 209.307 584.516 209.526 585.351 209.963C586.192 210.395 586.848 210.986 587.32 211.736C587.791 212.48 588.027 213.321 588.027 214.259C588.027 214.906 587.905 215.54 587.661 216.159C587.422 216.778 587.004 217.469 586.408 218.23C585.811 218.986 584.982 219.903 583.919 220.983L580.45 224.614V224.741H588.308V227H576.82Z" fill="#37415C"/>
<path d="M479.162 164.239C477.991 164.239 476.946 164.037 476.026 163.634C475.111 163.23 474.386 162.67 473.852 161.955C473.324 161.233 473.04 160.398 473 159.449H475.676C475.71 159.966 475.884 160.415 476.196 160.795C476.514 161.17 476.929 161.46 477.44 161.665C477.952 161.869 478.52 161.972 479.145 161.972C479.832 161.972 480.44 161.852 480.969 161.614C481.503 161.375 481.92 161.043 482.222 160.616C482.523 160.185 482.673 159.688 482.673 159.125C482.673 158.54 482.523 158.026 482.222 157.582C481.926 157.134 481.491 156.781 480.918 156.526C480.349 156.27 479.662 156.142 478.855 156.142H477.381V153.994H478.855C479.503 153.994 480.071 153.878 480.56 153.645C481.054 153.412 481.44 153.088 481.719 152.673C481.997 152.253 482.136 151.761 482.136 151.199C482.136 150.659 482.014 150.19 481.77 149.793C481.531 149.389 481.19 149.074 480.747 148.847C480.31 148.619 479.793 148.506 479.196 148.506C478.628 148.506 478.097 148.611 477.602 148.821C477.114 149.026 476.716 149.321 476.409 149.707C476.102 150.088 475.938 150.545 475.915 151.08H473.366C473.395 150.136 473.673 149.307 474.202 148.591C474.736 147.875 475.44 147.315 476.315 146.912C477.19 146.509 478.162 146.307 479.23 146.307C480.349 146.307 481.315 146.526 482.128 146.963C482.946 147.395 483.577 147.972 484.02 148.693C484.469 149.415 484.69 150.205 484.685 151.062C484.69 152.04 484.418 152.869 483.866 153.551C483.321 154.233 482.594 154.69 481.685 154.923V155.06C482.844 155.236 483.741 155.696 484.378 156.44C485.02 157.185 485.338 158.108 485.332 159.21C485.338 160.17 485.071 161.031 484.531 161.793C483.997 162.554 483.267 163.153 482.341 163.591C481.415 164.023 480.355 164.239 479.162 164.239ZM488.554 164V162.091L494.46 155.972C495.091 155.307 495.611 154.724 496.02 154.224C496.435 153.719 496.744 153.239 496.949 152.784C497.153 152.33 497.256 151.847 497.256 151.335C497.256 150.756 497.119 150.256 496.847 149.835C496.574 149.409 496.202 149.082 495.73 148.855C495.259 148.622 494.727 148.506 494.136 148.506C493.511 148.506 492.966 148.634 492.5 148.889C492.034 149.145 491.676 149.506 491.426 149.972C491.176 150.437 491.051 150.983 491.051 151.608H488.537C488.537 150.545 488.781 149.616 489.27 148.821C489.759 148.026 490.429 147.409 491.281 146.972C492.134 146.528 493.102 146.307 494.188 146.307C495.284 146.307 496.25 146.526 497.085 146.963C497.926 147.395 498.582 147.986 499.054 148.736C499.526 149.48 499.761 150.321 499.761 151.259C499.761 151.906 499.639 152.54 499.395 153.159C499.156 153.778 498.739 154.469 498.142 155.23C497.545 155.986 496.716 156.903 495.653 157.983L492.185 161.614V161.741H500.043V164H488.554Z" fill="#37415C"/>
<path d="M180 510L323 266L460 510H180Z" fill="white" stroke="#37415C" stroke-width="2"/>
<path d="M280.216 339L322.929 266L364 339H280.216Z" fill="white" stroke="#37415C" stroke-width="2"/>
<path d="M180 510L222.929 437L264 510H180Z" fill="white" stroke="#37415C" stroke-width="2"/>
<path d="M376 510L418.929 437L460 510H376Z" fill="#37415C"/>
<g clip-path="url(#clip0_1424_4117)">
<path d="M419 494.333C420.104 494.333 421 495.229 421 496.333C421 497.437 420.104 498.333 419 498.333C417.896 498.333 417 497.437 417 496.333C417 495.229 417.896 494.333 419 494.333ZM419 471.666C423.419 471.666 427 475.247 427 479.666C427 482.553 425.996 484.053 423.435 486.23C420.865 488.413 420.333 489.395 420.333 491.666H417.667C417.667 488.367 418.716 486.739 421.708 484.198C423.731 482.479 424.333 481.578 424.333 479.666C424.333 476.719 421.947 474.333 419 474.333C416.053 474.333 413.667 476.719 413.667 479.666V480.999H411V479.666C411 475.247 414.581 471.666 419 471.666Z" fill="white"/>
</g>
<path d="M321.995 319.239C320.773 319.239 319.694 319.028 318.756 318.608C317.824 318.187 317.094 317.608 316.566 316.869C316.037 316.131 315.776 315.29 315.782 314.347C315.776 313.608 315.926 312.929 316.233 312.31C316.546 311.685 316.969 311.165 317.503 310.75C318.037 310.33 318.634 310.062 319.293 309.949V309.847C318.424 309.636 317.728 309.17 317.205 308.449C316.682 307.727 316.424 306.898 316.429 305.96C316.424 305.068 316.659 304.273 317.137 303.574C317.62 302.869 318.282 302.315 319.123 301.912C319.963 301.509 320.921 301.307 321.995 301.307C323.057 301.307 324.006 301.511 324.841 301.92C325.682 302.324 326.344 302.878 326.827 303.582C327.31 304.281 327.554 305.074 327.56 305.96C327.554 306.898 327.287 307.727 326.759 308.449C326.23 309.17 325.543 309.636 324.696 309.847V309.949C325.35 310.062 325.938 310.33 326.461 310.75C326.989 311.165 327.409 311.685 327.722 312.31C328.04 312.929 328.202 313.608 328.208 314.347C328.202 315.29 327.935 316.131 327.407 316.869C326.878 317.608 326.145 318.187 325.208 318.608C324.276 319.028 323.205 319.239 321.995 319.239ZM321.995 317.082C322.716 317.082 323.341 316.963 323.87 316.724C324.398 316.48 324.807 316.142 325.097 315.71C325.387 315.273 325.534 314.761 325.54 314.176C325.534 313.568 325.375 313.031 325.063 312.565C324.756 312.099 324.338 311.733 323.81 311.466C323.282 311.199 322.676 311.065 321.995 311.065C321.307 311.065 320.696 311.199 320.162 311.466C319.628 311.733 319.208 312.099 318.901 312.565C318.594 313.031 318.444 313.568 318.449 314.176C318.444 314.761 318.583 315.273 318.867 315.71C319.157 316.142 319.569 316.48 320.103 316.724C320.637 316.963 321.267 317.082 321.995 317.082ZM321.995 308.96C322.574 308.96 323.088 308.844 323.537 308.611C323.986 308.378 324.338 308.054 324.594 307.639C324.855 307.224 324.989 306.739 324.995 306.182C324.989 305.636 324.858 305.159 324.603 304.75C324.353 304.341 324.003 304.026 323.554 303.804C323.105 303.577 322.586 303.463 321.995 303.463C321.392 303.463 320.864 303.577 320.409 303.804C319.961 304.026 319.611 304.341 319.361 304.75C319.111 305.159 318.989 305.636 318.995 306.182C318.989 306.739 319.114 307.224 319.37 307.639C319.625 308.054 319.978 308.378 320.426 308.611C320.881 308.844 321.404 308.96 321.995 308.96Z" fill="#37415C"/>
<path d="M217.318 491L224.937 475.932V475.804H216.125V473.545H227.664V475.881L220.071 491H217.318Z" fill="#37415C"/>
<path d="M310.494 428L318.113 412.932V412.804H309.3V410.545H320.84V412.881L313.246 428H310.494ZM329.331 428.239C328.263 428.239 327.303 428.034 326.45 427.625C325.604 427.21 324.928 426.642 324.422 425.92C323.916 425.199 323.646 424.375 323.612 423.449H326.169C326.232 424.199 326.564 424.815 327.166 425.298C327.768 425.781 328.49 426.023 329.331 426.023C330.001 426.023 330.595 425.869 331.112 425.562C331.635 425.25 332.044 424.821 332.339 424.276C332.641 423.73 332.791 423.108 332.791 422.409C332.791 421.699 332.638 421.065 332.331 420.509C332.024 419.952 331.601 419.514 331.061 419.196C330.527 418.878 329.913 418.716 329.22 418.71C328.692 418.71 328.161 418.801 327.626 418.983C327.092 419.165 326.661 419.403 326.331 419.699L323.919 419.341L324.899 410.545H334.496V412.804H327.089L326.536 417.688H326.638C326.979 417.358 327.43 417.082 327.993 416.861C328.561 416.639 329.169 416.528 329.817 416.528C330.879 416.528 331.825 416.781 332.655 417.287C333.49 417.793 334.146 418.483 334.624 419.358C335.107 420.227 335.345 421.227 335.339 422.358C335.345 423.489 335.089 424.497 334.572 425.384C334.061 426.27 333.351 426.969 332.442 427.48C331.538 427.986 330.501 428.239 329.331 428.239Z" fill="#37415C"/>
<defs>
<clipPath id="clip0_1424_4117">
<rect width="32" height="32" fill="white" transform="translate(403 469)"/>
</clipPath>
</defs>
</svg>
