<svg width="121" height="120" viewBox="0 0 121 120" fill="none" xmlns="http://www.w3.org/2000/svg">
<rect x="1.5" y="1" width="118" height="118" rx="3" fill="white"/>
<rect x="1.5" y="1" width="118" height="118" rx="3" stroke="#37415C" stroke-width="2"/>
<path d="M54.3196 71V69.0909L60.2259 62.9716C60.8565 62.3068 61.3764 61.7244 61.7855 61.2244C62.2003 60.7187 62.5099 60.2386 62.7145 59.7841C62.919 59.3295 63.0213 58.8466 63.0213 58.3352C63.0213 57.7557 62.8849 57.2557 62.6122 56.8352C62.3395 56.4091 61.9673 56.0824 61.4957 55.8551C61.0241 55.6222 60.4929 55.5057 59.902 55.5057C59.277 55.5057 58.7315 55.6335 58.2656 55.8892C57.7997 56.1449 57.4418 56.5057 57.1918 56.9716C56.9418 57.4375 56.8168 57.983 56.8168 58.608H54.3026C54.3026 57.5455 54.5469 56.6165 55.0355 55.821C55.5241 55.0256 56.1946 54.4091 57.0469 53.9716C57.8991 53.5284 58.8679 53.3068 59.9531 53.3068C61.0497 53.3068 62.0156 53.5256 62.8509 53.9631C63.6918 54.3949 64.348 54.9858 64.8196 55.7358C65.2912 56.4801 65.527 57.321 65.527 58.2585C65.527 58.9062 65.4048 59.5398 65.1605 60.1591C64.9219 60.7784 64.5043 61.4687 63.9077 62.2301C63.3111 62.9858 62.4815 63.9034 61.419 64.983L57.9503 68.6136V68.7415H65.8082V71H54.3196Z" fill="#37415C"/>
</svg>
