<svg width="121" height="120" viewBox="0 0 121 120" fill="none" xmlns="http://www.w3.org/2000/svg">
<rect x="1.5" y="1" width="118" height="118" rx="3" fill="white"/>
<rect x="1.5" y="1" width="118" height="118" rx="3" stroke="#37415C" stroke-width="2"/>
<path d="M59.5213 71.2386C58.3509 71.2386 57.3054 71.0369 56.3849 70.6335C55.4702 70.2301 54.7457 69.6705 54.2116 68.9545C53.6832 68.233 53.3991 67.3977 53.3594 66.4489H56.0355C56.0696 66.9659 56.2429 67.4148 56.5554 67.7955C56.8736 68.1705 57.2884 68.4602 57.7997 68.6648C58.3111 68.8693 58.8793 68.9716 59.5043 68.9716C60.1918 68.9716 60.7997 68.8523 61.3281 68.6136C61.8622 68.375 62.2798 68.0426 62.581 67.6165C62.8821 67.1847 63.0327 66.6875 63.0327 66.125C63.0327 65.5398 62.8821 65.0256 62.581 64.5824C62.2855 64.1335 61.8509 63.7812 61.277 63.5256C60.7088 63.2699 60.0213 63.142 59.2145 63.142H57.7401V60.9943H59.2145C59.8622 60.9943 60.4304 60.8778 60.919 60.6449C61.4134 60.4119 61.7997 60.0881 62.0781 59.6733C62.3565 59.2528 62.4957 58.7614 62.4957 58.1989C62.4957 57.6591 62.3736 57.1903 62.1293 56.7926C61.8906 56.3892 61.5497 56.0739 61.1065 55.8466C60.669 55.6193 60.152 55.5057 59.5554 55.5057C58.9872 55.5057 58.456 55.6108 57.9616 55.821C57.473 56.0256 57.0753 56.321 56.7685 56.7074C56.4616 57.0881 56.2969 57.5455 56.2741 58.0795H53.7259C53.7543 57.1364 54.0327 56.3068 54.5611 55.5909C55.0952 54.875 55.7997 54.3153 56.6747 53.9119C57.5497 53.5085 58.5213 53.3068 59.5895 53.3068C60.7088 53.3068 61.6747 53.5256 62.4872 53.9631C63.3054 54.3949 63.9361 54.9716 64.3793 55.6932C64.8281 56.4148 65.0497 57.2045 65.044 58.0625C65.0497 59.0398 64.777 59.8693 64.2259 60.5511C63.6804 61.233 62.9531 61.6903 62.044 61.9233V62.0597C63.2031 62.2358 64.1009 62.696 64.7372 63.4403C65.3793 64.1847 65.6974 65.108 65.6918 66.2102C65.6974 67.1705 65.4304 68.0312 64.8906 68.7926C64.3565 69.554 63.6264 70.1534 62.7003 70.5909C61.7741 71.0227 60.7145 71.2386 59.5213 71.2386Z" fill="#37415C"/>
</svg>
