<svg width="124" height="124" viewBox="0 0 124 124" fill="none" xmlns="http://www.w3.org/2000/svg">
<g clip-path="url(#clip0_1457_182)">
<path d="M-2284 -421C-2284 -422.658 -2282.65 -424 -2281 -424H1289C1290.66 -424 1292 -422.658 1292 -421V1409C1292 1410.66 1290.66 1412 1289 1412H-2281C-2282.65 1412 -2284 1410.66 -2284 1409V-421Z" fill="#F0F0F0"/>
<path d="M-2281 -422.5H1289V-425.5H-2281V-422.5ZM1290.5 -421V1409H1293.5V-421H1290.5ZM1289 1410.5H-2281V1413.5H1289V1410.5ZM-2282.5 1409V-421H-2285.5V1409H-2282.5ZM-2281 1410.5C-2281.83 1410.5 -2282.5 1409.83 -2282.5 1409H-2285.5C-2285.5 1411.49 -2283.49 1413.5 -2281 1413.5V1410.5ZM1290.5 1409C1290.5 1409.83 1289.83 1410.5 1289 1410.5V1413.5C1291.49 1413.5 1293.5 1411.49 1293.5 1409H1290.5ZM1289 -422.5C1289.83 -422.5 1290.5 -421.828 1290.5 -421H1293.5C1293.5 -423.485 1291.49 -425.5 1289 -425.5V-422.5ZM-2281 -425.5C-2283.49 -425.5 -2285.5 -423.485 -2285.5 -421H-2282.5C-2282.5 -421.828 -2281.83 -422.5 -2281 -422.5V-425.5Z" fill="black" fill-opacity="0.1"/>
<path d="M1142 -274H-1018V1262H1142V-274Z" fill="white"/>
<path d="M318.5 -83.5H-196C-200.142 -83.5 -203.5 -80.1421 -203.5 -76V392C-203.5 396.142 -200.142 399.5 -196 399.5H318.5C322.642 399.5 326 396.142 326 392V-76C326 -80.1421 322.642 -83.5 318.5 -83.5Z" stroke="#D3D6DF" stroke-width="2"/>
<path d="M179.75 158C179.75 230.719 126.812 289.25 62 289.25C-2.81191 289.25 -55.75 230.719 -55.75 158C-55.75 85.281 -2.81191 26.75 62 26.75C126.812 26.75 179.75 85.281 179.75 158Z" stroke="#1855BA" stroke-width="3"/>
<path d="M227.75 158C227.75 259.703 153.331 341.75 62 341.75C-29.3313 341.75 -103.75 259.703 -103.75 158C-103.75 56.2967 -29.3313 -25.75 62 -25.75C153.331 -25.75 227.75 56.2967 227.75 158Z" stroke="#1855BA" stroke-width="3"/>
<path d="M275.75 158C275.75 289.535 179.834 395.75 62 395.75C-55.8337 395.75 -151.75 289.535 -151.75 158C-151.75 26.4655 -55.8337 -79.75 62 -79.75C179.834 -79.75 275.75 26.4655 275.75 158Z" stroke="#1855BA" stroke-width="3"/>
<path d="M62.75 -82V398" stroke="#1855BA" stroke-width="3"/>
<path d="M-202 86.75H324.5" stroke="#1855BA" stroke-width="3"/>
</g>
<rect x="1" y="1" width="122" height="122" rx="5" stroke="#D3D6DF" stroke-width="2"/>
<defs>
<clipPath id="clip0_1457_182">
<rect x="2" y="2" width="120" height="120" rx="4" fill="white"/>
</clipPath>
</defs>
</svg>
