<svg width="124" height="124" viewBox="0 0 124 124" fill="none" xmlns="http://www.w3.org/2000/svg">
<g clip-path="url(#clip0_1457_207)">
<path d="M-2284 -373C-2284 -374.658 -2282.65 -376 -2281 -376H1289C1290.66 -376 1292 -374.658 1292 -373V1457C1292 1458.66 1290.66 1460 1289 1460H-2281C-2282.65 1460 -2284 1458.66 -2284 1457V-373Z" fill="#F0F0F0"/>
<path d="M-2281 -374.5H1289V-377.5H-2281V-374.5ZM1290.5 -373V1457H1293.5V-373H1290.5ZM1289 1458.5H-2281V1461.5H1289V1458.5ZM-2282.5 1457V-373H-2285.5V1457H-2282.5ZM-2281 1458.5C-2281.83 1458.5 -2282.5 1457.83 -2282.5 1457H-2285.5C-2285.5 1459.49 -2283.49 1461.5 -2281 1461.5V1458.5ZM1290.5 1457C1290.5 1457.83 1289.83 1458.5 1289 1458.5V1461.5C1291.49 1461.5 1293.5 1459.49 1293.5 1457H1290.5ZM1289 -374.5C1289.83 -374.5 1290.5 -373.828 1290.5 -373H1293.5C1293.5 -375.485 1291.49 -377.5 1289 -377.5V-374.5ZM-2281 -377.5C-2283.49 -377.5 -2285.5 -375.485 -2285.5 -373H-2282.5C-2282.5 -373.828 -2281.83 -374.5 -2281 -374.5V-377.5Z" fill="black" fill-opacity="0.1"/>
<path d="M1142 -226H-1018V1310H1142V-226Z" fill="white"/>
<path d="M318.5 -35.5H-196C-200.142 -35.5 -203.5 -32.1421 -203.5 -28V440C-203.5 444.142 -200.142 447.5 -196 447.5H318.5C322.642 447.5 326 444.142 326 440V-28C326 -32.1421 322.642 -35.5 318.5 -35.5Z" stroke="#D3D6DF" stroke-width="2"/>
<path d="M179.75 206C179.75 278.719 126.812 337.25 62 337.25C-2.81191 337.25 -55.75 278.719 -55.75 206C-55.75 133.281 -2.81191 74.75 62 74.75C126.812 74.75 179.75 133.281 179.75 206Z" stroke="#1855BA" stroke-width="3"/>
<path d="M227.75 206C227.75 307.703 153.331 389.75 62 389.75C-29.3313 389.75 -103.75 307.703 -103.75 206C-103.75 104.297 -29.3313 22.25 62 22.25C153.331 22.25 227.75 104.297 227.75 206Z" stroke="#1855BA" stroke-width="3"/>
<path d="M275.75 206C275.75 337.535 179.834 443.75 62 443.75C-55.8337 443.75 -151.75 337.535 -151.75 206C-151.75 74.4655 -55.8337 -31.75 62 -31.75C179.834 -31.75 275.75 74.4655 275.75 206Z" stroke="#1855BA" stroke-width="3"/>
<path d="M62.75 -34V446" stroke="#1855BA" stroke-width="3"/>
</g>
<rect x="1" y="1" width="122" height="122" rx="5" stroke="#D3D6DF" stroke-width="2"/>
<defs>
<clipPath id="clip0_1457_207">
<rect x="2" y="2" width="120" height="120" rx="4" fill="white"/>
</clipPath>
</defs>
</svg>
