<svg width="520" height="238" viewBox="0 0 520 238" fill="none" xmlns="http://www.w3.org/2000/svg">
<rect x="141" width="238" height="238" rx="4" fill="white"/>
<rect x="142" y="1" width="118" height="118" stroke="#37415C" stroke-width="2"/>
<path fill-rule="evenodd" clip-rule="evenodd" d="M201 103C224.748 103 244 83.7482 244 60C244 36.2518 224.748 17 201 17C177.252 17 158 36.2518 158 60C158 83.7482 177.252 103 201 103ZM201 105C225.853 105 246 84.8528 246 60C246 35.1472 225.853 15 201 15C176.147 15 156 35.1472 156 60C156 84.8528 176.147 105 201 105Z" fill="#37415C"/>
<path fill-rule="evenodd" clip-rule="evenodd" d="M201 21.125L225.182 59.5007L201 97.8765L176.818 59.5007L201 21.125ZM179.182 59.5007L201 94.125L222.818 59.5007L201 24.8765L179.182 59.5007Z" fill="#37415C"/>
<rect x="142" y="119" width="118" height="118" stroke="#37415C" stroke-width="2"/>
<path fill-rule="evenodd" clip-rule="evenodd" d="M201 190C207.627 190 213 184.627 213 178C213 171.373 207.627 166 201 166C194.373 166 189 171.373 189 178C189 184.627 194.373 190 201 190ZM201 192C208.732 192 215 185.732 215 178C215 170.268 208.732 164 201 164C193.268 164 187 170.268 187 178C187 185.732 193.268 192 201 192Z" fill="#37415C"/>
<path fill-rule="evenodd" clip-rule="evenodd" d="M252.855 178L201 211.187L149.145 178L201 144.812L252.855 178ZM201 147.187L152.855 178L201 208.813L249.145 178L201 147.187Z" fill="#37415C"/>
<rect x="260" y="119" width="118" height="118" stroke="#37415C" stroke-width="2"/>
<g clip-path="url(#clip0_1418_3729)">
<path d="M319 187.333C320.104 187.333 321 188.229 321 189.333C321 190.437 320.104 191.333 319 191.333C317.896 191.333 317 190.437 317 189.333C317 188.229 317.896 187.333 319 187.333ZM319 164.666C323.419 164.666 327 168.247 327 172.666C327 175.553 325.996 177.053 323.435 179.23C320.865 181.413 320.333 182.395 320.333 184.666H317.667C317.667 181.367 318.716 179.739 321.708 177.198C323.731 175.479 324.333 174.578 324.333 172.666C324.333 169.719 321.947 167.333 319 167.333C316.053 167.333 313.667 169.719 313.667 172.666V173.999H311V172.666C311 168.247 314.581 164.666 319 164.666Z" fill="#37415C"/>
</g>
<rect x="260" y="1" width="118" height="118" stroke="#37415C" stroke-width="2"/>
<path fill-rule="evenodd" clip-rule="evenodd" d="M319 103C342.748 103 362 83.7482 362 60C362 36.2518 342.748 17 319 17C295.252 17 276 36.2518 276 60C276 83.7482 295.252 103 319 103ZM319 105C343.853 105 364 84.8528 364 60C364 35.1472 343.853 15 319 15C294.147 15 274 35.1472 274 60C274 84.8528 294.147 105 319 105Z" fill="#37415C"/>
<path fill-rule="evenodd" clip-rule="evenodd" d="M357.937 59.9996L319.5 83.1672L281.063 59.9996L319.5 36.832L357.937 59.9996ZM319.5 39.1672L284.937 59.9996L319.5 80.832L354.063 59.9996L319.5 39.1672Z" fill="#37415C"/>
<defs>
<clipPath id="clip0_1418_3729">
<rect width="32" height="32" fill="white" transform="translate(303 162)"/>
</clipPath>
</defs>
</svg>
