<svg width="560" height="460" viewBox="0 0 560 460" fill="none" xmlns="http://www.w3.org/2000/svg">
<circle cx="120.5" cy="82" r="49" fill="white" stroke="#37415C" stroke-width="2"/>
<path fill-rule="evenodd" clip-rule="evenodd" d="M107 76C109.209 76 111 74.2091 111 72C111 69.7909 109.209 68 107 68C104.791 68 103 69.7909 103 72C103 74.2091 104.791 76 107 76ZM107 78C110.314 78 113 75.3137 113 72C113 68.6863 110.314 66 107 66C103.686 66 101 68.6863 101 72C101 75.3137 103.686 78 107 78Z" fill="#37415C"/>
<path fill-rule="evenodd" clip-rule="evenodd" d="M135 76C137.209 76 139 74.2091 139 72C139 69.7909 137.209 68 135 68C132.791 68 131 69.7909 131 72C131 74.2091 132.791 76 135 76ZM135 78C138.314 78 141 75.3137 141 72C141 68.6863 138.314 66 135 66C131.686 66 129 68.6863 129 72C129 75.3137 131.686 78 135 78Z" fill="#37415C"/>
<path d="M114.446 99.6798L120.057 83.0629C120.371 82.1313 121.701 82.1655 121.967 83.112L126.643 99.7289C126.822 100.367 126.343 101 125.68 101H115.393C114.709 101 114.227 100.328 114.446 99.6798Z" fill="#37415C"/>
<path fill-rule="evenodd" clip-rule="evenodd" d="M106.198 9.54688C106.75 9.54688 107.198 9.99459 107.198 10.5469C107.198 11.264 107.071 11.989 106.929 12.6472C106.86 12.9653 106.794 13.2446 106.731 13.5096C106.651 13.8466 106.577 14.1603 106.51 14.5011C106.477 14.6692 106.444 14.8331 106.412 14.9937C106.199 16.0576 106.015 16.9721 106.015 17.9623C106.015 18.2168 106.011 18.4511 106.007 18.6764C106 19.0533 105.993 19.4049 106.009 19.7832C106.031 20.3534 106.103 20.8468 106.271 21.2798C106.677 22.331 107.031 23.1642 107.611 24.0025C108.005 24.5712 108.342 25.2036 108.643 25.7697C108.75 25.9711 108.853 26.1641 108.953 26.3429C108.972 26.378 108.992 26.4137 109.012 26.4501C109.422 27.1854 109.992 28.2061 109.992 29.3959V33.9753C109.992 34.5276 109.544 34.9753 108.992 34.9753C108.44 34.9753 107.992 34.5276 107.992 33.9753V29.3959C107.992 28.7593 107.676 28.1626 107.204 27.3142C107.067 27.0678 106.943 26.8345 106.824 26.6107C106.542 26.0823 106.29 25.6074 105.967 25.1409C105.243 24.0958 104.82 23.0744 104.405 22.0006C104.126 21.2784 104.037 20.5394 104.01 19.8627C103.993 19.4347 104.001 18.9701 104.008 18.5501C104.012 18.3395 104.015 18.1402 104.015 17.9623C104.015 16.758 104.242 15.6335 104.454 14.5827C104.486 14.4253 104.517 14.2696 104.548 14.1156C104.616 13.7681 104.711 13.3629 104.802 12.9749C104.865 12.709 104.925 12.4512 104.974 12.2254C105.107 11.6058 105.198 11.0473 105.198 10.5469C105.198 9.99459 105.645 9.54688 106.198 9.54688Z" fill="#37415C"/>
<path fill-rule="evenodd" clip-rule="evenodd" d="M121.807 7.16806C122.267 7.47441 122.391 8.09528 122.085 8.55481C121.854 8.90049 121.572 9.19412 121.355 9.42068C121.349 9.42668 121.343 9.43264 121.337 9.43855C121.097 9.68914 120.923 9.87245 120.787 10.0705C120.112 11.0554 119.544 11.9346 119.03 12.9611C117.78 15.4626 117.651 18.5028 118.735 21.0688C118.899 21.458 119.107 21.823 119.349 22.2486C119.364 22.2757 119.379 22.303 119.395 22.3306C119.646 22.7732 119.931 23.2814 120.146 23.8508C120.541 24.8958 120.641 25.8294 120.641 26.8551C120.641 27.0618 120.648 27.256 120.656 27.4702C120.66 27.599 120.665 27.7351 120.669 27.8854C120.679 28.2549 120.679 28.6697 120.627 29.0867C120.546 29.7302 120.333 30.3254 120.162 30.8017C120.138 30.8665 120.116 30.929 120.095 30.9892C119.903 31.5315 119.781 31.9522 119.781 32.3958C119.781 32.9481 119.333 33.3958 118.781 33.3958C118.228 33.3958 117.781 32.9481 117.781 32.3958C117.781 31.5848 118.01 30.886 118.209 30.3239C118.233 30.2546 118.257 30.1876 118.28 30.1228C118.457 29.6249 118.591 29.2484 118.642 28.8387C118.675 28.5733 118.679 28.2785 118.67 27.937C118.667 27.8337 118.663 27.719 118.659 27.5989C118.65 27.3574 118.641 27.0938 118.641 26.8551C118.641 25.98 118.558 25.305 118.275 24.5576C118.121 24.1507 117.91 23.7652 117.656 23.3183C117.637 23.285 117.618 23.2513 117.599 23.2171C117.368 22.8123 117.104 22.3493 116.892 21.8467C115.575 18.7261 115.737 15.0752 117.242 12.0666C117.816 10.917 118.445 9.94886 119.138 8.93884C119.374 8.59549 119.654 8.30433 119.87 8.07901C119.878 8.07041 119.887 8.06191 119.895 8.05351C120.135 7.80314 120.299 7.6281 120.421 7.44541C120.727 6.98588 121.348 6.8617 121.807 7.16806Z" fill="#37415C"/>
<path fill-rule="evenodd" clip-rule="evenodd" d="M137.272 10.1421C137.811 10.1263 138.242 9.68479 138.242 9.14251C138.242 9.14083 138.242 9.13837 138.242 9.13523C138.243 9.10419 138.243 9.00583 138.234 8.92157C138.234 8.92062 138.234 8.91953 138.234 8.91832C138.229 8.87906 138.21 8.70422 138.106 8.51865C138.043 8.40555 137.931 8.2569 137.744 8.14445C137.55 8.02794 137.349 7.99437 137.184 8.00074C136.924 8.01073 136.738 8.12057 136.703 8.14087C136.702 8.14164 136.701 8.14227 136.7 8.14278C136.648 8.17302 136.604 8.20451 136.592 8.21345L136.59 8.21464C136.58 8.22192 136.572 8.22734 136.567 8.23154C136.551 8.24279 136.547 8.24528 136.538 8.25108C136.268 8.42298 135.999 8.55909 135.669 8.72615C135.614 8.75399 135.558 8.7827 135.499 8.81257C134.263 9.44181 133.451 10.5374 132.984 11.6933C132.571 12.7144 132.303 13.7937 132.267 14.9375C132.232 16.0013 132.057 17.0241 131.869 18.1177C131.789 18.5838 131.707 19.0628 131.632 19.5632C131.516 20.3447 131.269 21.0982 130.977 21.9222C130.941 22.0243 130.904 22.1278 130.866 22.2328C130.61 22.9499 130.33 23.7323 130.142 24.5494C129.938 25.4385 129.689 26.26 129.303 26.9442C129.017 27.4504 128.786 27.984 128.579 28.4751C128.549 28.5456 128.52 28.6151 128.491 28.6836C128.313 29.1084 128.15 29.4967 127.965 29.8669C127.59 30.617 127 31.8342 127 33.0008C127 33.5531 127.448 34.0008 128 34.0008C128.552 34.0008 129 33.5531 129 33.0008C129 32.3797 129.347 31.5765 129.754 30.7613C129.972 30.3264 130.163 29.8693 130.339 29.4486C130.367 29.3818 130.395 29.3159 130.422 29.2512C130.628 28.7622 130.82 28.3238 131.044 27.9283C131.575 26.9889 131.874 25.9415 132.091 24.9974C132.251 24.3035 132.487 23.6404 132.747 22.9142C132.785 22.8077 132.823 22.6999 132.862 22.5904C133.157 21.7587 133.463 20.8468 133.61 19.8575C133.67 19.4542 133.743 19.0317 133.817 18.5965C134.014 17.4487 134.226 16.212 134.266 15.002C134.294 14.1339 134.497 13.2871 134.838 12.4429C135.175 11.6085 135.707 10.9508 136.406 10.5949C136.457 10.5694 136.508 10.5434 136.56 10.5169C136.784 10.4039 137.026 10.2816 137.272 10.1421Z" fill="#37415C"/>
<rect x="230.5" y="33" width="99" height="98" rx="3" fill="white" stroke="#37415C" stroke-width="2"/>
<path fill-rule="evenodd" clip-rule="evenodd" d="M281.807 7.16806C282.267 7.47441 282.391 8.09528 282.085 8.55481C281.854 8.90049 281.572 9.19412 281.355 9.42068C281.349 9.42668 281.343 9.43264 281.337 9.43855C281.097 9.68914 280.923 9.87245 280.787 10.0705C280.112 11.0554 279.544 11.9346 279.03 12.9611C277.78 15.4626 277.651 18.5028 278.735 21.0688C278.899 21.458 279.107 21.823 279.349 22.2486C279.364 22.2757 279.379 22.303 279.395 22.3306C279.646 22.7732 279.931 23.2814 280.146 23.8508C280.541 24.8958 280.641 25.8294 280.641 26.8551C280.641 27.0618 280.648 27.256 280.656 27.4702C280.66 27.599 280.665 27.7351 280.669 27.8854C280.679 28.2549 280.679 28.6697 280.627 29.0867C280.546 29.7302 280.333 30.3254 280.162 30.8017C280.138 30.8665 280.116 30.929 280.095 30.9892C279.903 31.5315 279.781 31.9522 279.781 32.3958C279.781 32.9481 279.333 33.3958 278.781 33.3958C278.228 33.3958 277.781 32.9481 277.781 32.3958C277.781 31.5848 278.01 30.886 278.209 30.3239C278.233 30.2546 278.257 30.1876 278.28 30.1228C278.457 29.6249 278.591 29.2484 278.642 28.8387C278.675 28.5733 278.679 28.2785 278.67 27.937C278.667 27.8337 278.663 27.719 278.659 27.5989C278.65 27.3574 278.641 27.0938 278.641 26.8551C278.641 25.98 278.558 25.305 278.275 24.5576C278.121 24.1507 277.91 23.7652 277.656 23.3183C277.637 23.285 277.618 23.2513 277.599 23.2171C277.368 22.8123 277.104 22.3493 276.892 21.8467C275.575 18.7261 275.737 15.0752 277.242 12.0666C277.816 10.917 278.445 9.94886 279.138 8.93884C279.374 8.59549 279.654 8.30433 279.87 8.07901C279.878 8.07041 279.887 8.06191 279.895 8.05351C280.135 7.80314 280.299 7.6281 280.421 7.44541C280.727 6.98588 281.348 6.8617 281.807 7.16806Z" fill="#37415C"/>
<path d="M272 72C272 75.3137 269.314 78 266 78C262.686 78 260 75.3137 260 72C260 68.6863 262.686 66 266 66C269.314 66 272 68.6863 272 72Z" fill="#37415C"/>
<path fill-rule="evenodd" clip-rule="evenodd" d="M294 76C296.209 76 298 74.2091 298 72C298 69.7909 296.209 68 294 68C291.791 68 290 69.7909 290 72C290 74.2091 291.791 76 294 76ZM294 78C297.314 78 300 75.3137 300 72C300 68.6863 297.314 66 294 66C290.686 66 288 68.6863 288 72C288 75.3137 290.686 78 294 78Z" fill="#37415C"/>
<path d="M274.446 99.6798L280.057 83.0629C280.371 82.1313 281.701 82.1655 281.967 83.112L286.643 99.7289C286.822 100.367 286.343 101 285.68 101H275.393C274.709 101 274.227 100.328 274.446 99.6798Z" fill="#37415C"/>
<path d="M487.264 33H393.736C392.249 33 391.282 34.5646 391.947 35.8944L438.711 129.422C439.448 130.896 441.552 130.896 442.289 129.422L489.053 35.8944C489.718 34.5646 488.751 33 487.264 33Z" fill="white" stroke="#37415C" stroke-width="2"/>
<path fill-rule="evenodd" clip-rule="evenodd" d="M441.807 7.16806C442.267 7.47441 442.391 8.09528 442.085 8.55481C441.854 8.90049 441.572 9.19412 441.355 9.42068C441.349 9.42668 441.343 9.43264 441.337 9.43855C441.097 9.68914 440.923 9.87245 440.787 10.0705C440.112 11.0554 439.544 11.9346 439.03 12.9611C437.78 15.4626 437.651 18.5028 438.735 21.0688C438.899 21.458 439.107 21.823 439.349 22.2486C439.364 22.2757 439.379 22.303 439.395 22.3306C439.646 22.7732 439.931 23.2814 440.146 23.8508C440.541 24.8958 440.641 25.8294 440.641 26.8551C440.641 27.0618 440.648 27.256 440.656 27.4702C440.66 27.599 440.665 27.7351 440.669 27.8854C440.679 28.2549 440.679 28.6697 440.627 29.0867C440.546 29.7302 440.333 30.3254 440.162 30.8017C440.138 30.8665 440.116 30.929 440.095 30.9892C439.903 31.5315 439.781 31.9522 439.781 32.3958C439.781 32.9481 439.333 33.3958 438.781 33.3958C438.228 33.3958 437.781 32.9481 437.781 32.3958C437.781 31.5848 438.01 30.886 438.209 30.3239C438.233 30.2546 438.257 30.1876 438.28 30.1228C438.457 29.6249 438.591 29.2484 438.642 28.8387C438.675 28.5733 438.679 28.2785 438.67 27.937C438.667 27.8337 438.663 27.719 438.659 27.5989C438.65 27.3574 438.641 27.0938 438.641 26.8551C438.641 25.98 438.558 25.305 438.275 24.5576C438.121 24.1507 437.91 23.7652 437.656 23.3183C437.637 23.285 437.618 23.2513 437.599 23.2171C437.368 22.8123 437.104 22.3493 436.892 21.8467C435.575 18.7261 435.737 15.0752 437.242 12.0666C437.816 10.917 438.445 9.94886 439.138 8.93884C439.374 8.59549 439.654 8.30433 439.87 8.07901C439.878 8.07041 439.887 8.06191 439.895 8.05351C440.135 7.80314 440.299 7.6281 440.421 7.44541C440.727 6.98588 441.348 6.8617 441.807 7.16806Z" fill="#37415C"/>
<path d="M433 72C433 75.3137 430.314 78 427 78C423.686 78 421 75.3137 421 72C421 68.6863 423.686 66 427 66C430.314 66 433 68.6863 433 72Z" fill="#37415C"/>
<path fill-rule="evenodd" clip-rule="evenodd" d="M455 76C457.209 76 459 74.2091 459 72C459 69.7909 457.209 68 455 68C452.791 68 451 69.7909 451 72C451 74.2091 452.791 76 455 76ZM455 78C458.314 78 461 75.3137 461 72C461 68.6863 458.314 66 455 66C451.686 66 449 68.6863 449 72C449 75.3137 451.686 78 455 78Z" fill="#37415C"/>
<path fill-rule="evenodd" clip-rule="evenodd" d="M439.109 82.743C439.738 80.8799 442.397 80.9481 442.929 82.8411L447.605 99.458C447.964 100.734 447.005 102 445.68 102H435.393C434.025 102 433.061 100.656 433.498 99.3599L439.109 82.743ZM441.004 83.3828L435.393 99.9997L445.68 99.9997L441.004 83.3828Z" fill="#37415C"/>
<path fill-rule="evenodd" clip-rule="evenodd" d="M438.75 91H438V89H438.75V91ZM441.75 91H440.25V89H441.75V91ZM444 91H443.25V89H444V91Z" fill="#37415C"/>
<path fill-rule="evenodd" clip-rule="evenodd" d="M442 86H440V84H442V86Z" fill="#37415C"/>
<path fill-rule="evenodd" clip-rule="evenodd" d="M437.125 95L436 95L436 93L437.125 93L437.125 95ZM441.625 95L439.375 95L439.375 93L441.625 93L441.625 95ZM445 95L443.875 95L443.875 93L445 93L445 95Z" fill="#37415C"/>
<path fill-rule="evenodd" clip-rule="evenodd" d="M436.833 99L436 99L436 97L436.833 97L436.833 99ZM440.167 99L438.5 99L438.5 97L440.167 97L440.167 99ZM443.5 99L441.833 99L441.833 97L443.5 97L443.5 99ZM446 99L445.167 99L445.167 97L446 97L446 99Z" fill="#37415C"/>
<path fill-rule="evenodd" clip-rule="evenodd" d="M457.272 10.1421C457.811 10.1263 458.242 9.68479 458.242 9.14251C458.242 9.14083 458.242 9.13837 458.242 9.13523C458.243 9.10419 458.243 9.00583 458.234 8.92157C458.234 8.92062 458.234 8.91953 458.234 8.91832C458.229 8.87906 458.21 8.70422 458.106 8.51865C458.043 8.40555 457.931 8.2569 457.744 8.14445C457.55 8.02794 457.349 7.99437 457.184 8.00074C456.924 8.01073 456.738 8.12057 456.703 8.14087C456.702 8.14164 456.701 8.14227 456.7 8.14278C456.648 8.17302 456.604 8.20451 456.592 8.21345L456.59 8.21464C456.58 8.22192 456.572 8.22734 456.567 8.23154C456.551 8.24279 456.547 8.24528 456.538 8.25108C456.268 8.42298 455.999 8.55909 455.669 8.72615C455.614 8.75399 455.558 8.7827 455.499 8.81257C454.263 9.44181 453.451 10.5374 452.984 11.6933C452.571 12.7144 452.303 13.7937 452.267 14.9375C452.232 16.0013 452.057 17.0241 451.869 18.1177C451.789 18.5838 451.707 19.0628 451.632 19.5632C451.516 20.3447 451.269 21.0982 450.977 21.9222C450.941 22.0243 450.904 22.1278 450.866 22.2328C450.61 22.9499 450.33 23.7323 450.142 24.5494C449.938 25.4385 449.689 26.26 449.303 26.9442C449.017 27.4504 448.786 27.984 448.579 28.4751C448.549 28.5456 448.52 28.6151 448.491 28.6836C448.313 29.1084 448.15 29.4967 447.965 29.8669C447.59 30.617 447 31.8342 447 33.0008C447 33.5531 447.448 34.0008 448 34.0008C448.552 34.0008 449 33.5531 449 33.0008C449 32.3797 449.347 31.5765 449.754 30.7613C449.972 30.3264 450.163 29.8693 450.339 29.4486C450.367 29.3818 450.395 29.3159 450.422 29.2512C450.628 28.7622 450.82 28.3238 451.044 27.9283C451.575 26.9889 451.874 25.9415 452.091 24.9974C452.251 24.3035 452.487 23.6404 452.747 22.9142C452.785 22.8077 452.823 22.6999 452.862 22.5904C453.157 21.7587 453.463 20.8468 453.61 19.8575C453.67 19.4542 453.743 19.0317 453.817 18.5965C454.014 17.4487 454.226 16.212 454.266 15.002C454.294 14.1339 454.497 13.2871 454.838 12.4429C455.175 11.6085 455.707 10.9508 456.406 10.5949C456.457 10.5694 456.508 10.5434 456.56 10.5169C456.784 10.4039 457.026 10.2816 457.272 10.1421Z" fill="#37415C"/>
<rect x="70.5" y="193" width="99" height="98" rx="3" fill="white" stroke="#37415C" stroke-width="2"/>
<path fill-rule="evenodd" clip-rule="evenodd" d="M121.807 167.168C122.267 167.474 122.391 168.095 122.085 168.555C121.854 168.9 121.572 169.194 121.355 169.421C121.349 169.427 121.343 169.433 121.337 169.439C121.097 169.689 120.923 169.872 120.787 170.071C120.112 171.055 119.544 171.935 119.03 172.961C117.78 175.463 117.651 178.503 118.735 181.069C118.899 181.458 119.107 181.823 119.349 182.249C119.364 182.276 119.379 182.303 119.395 182.331C119.646 182.773 119.931 183.281 120.146 183.851C120.541 184.896 120.641 185.829 120.641 186.855C120.641 187.062 120.648 187.256 120.656 187.47C120.66 187.599 120.665 187.735 120.669 187.885C120.679 188.255 120.679 188.67 120.627 189.087C120.546 189.73 120.333 190.325 120.162 190.802C120.138 190.866 120.116 190.929 120.095 190.989C119.903 191.531 119.781 191.952 119.781 192.396C119.781 192.948 119.333 193.396 118.781 193.396C118.228 193.396 117.781 192.948 117.781 192.396C117.781 191.585 118.01 190.886 118.209 190.324C118.233 190.255 118.257 190.188 118.28 190.123C118.457 189.625 118.591 189.248 118.642 188.839C118.675 188.573 118.679 188.279 118.67 187.937C118.667 187.834 118.663 187.719 118.659 187.599C118.65 187.357 118.641 187.094 118.641 186.855C118.641 185.98 118.558 185.305 118.275 184.558C118.121 184.151 117.91 183.765 117.656 183.318C117.637 183.285 117.618 183.251 117.599 183.217C117.368 182.812 117.104 182.349 116.892 181.847C115.575 178.726 115.737 175.075 117.242 172.067C117.816 170.917 118.445 169.949 119.138 168.939C119.374 168.595 119.654 168.304 119.87 168.079C119.878 168.07 119.887 168.062 119.895 168.054C120.135 167.803 120.299 167.628 120.421 167.445C120.727 166.986 121.348 166.862 121.807 167.168Z" fill="#37415C"/>
<path d="M112 232C112 235.314 109.314 238 106 238C102.686 238 100 235.314 100 232C100 228.686 102.686 226 106 226C109.314 226 112 228.686 112 232Z" fill="#37415C"/>
<path fill-rule="evenodd" clip-rule="evenodd" d="M134 236C136.209 236 138 234.209 138 232C138 229.791 136.209 228 134 228C131.791 228 130 229.791 130 232C130 234.209 131.791 236 134 236ZM134 238C137.314 238 140 235.314 140 232C140 228.686 137.314 226 134 226C130.686 226 128 228.686 128 232C128 235.314 130.686 238 134 238Z" fill="#37415C"/>
<path fill-rule="evenodd" clip-rule="evenodd" d="M119.109 242.743C119.738 240.88 122.397 240.948 122.929 242.841L127.605 259.458C127.964 260.734 127.005 262 125.68 262H115.393C114.025 262 113.061 260.656 113.498 259.36L119.109 242.743ZM121.004 243.383L115.393 260L125.68 260L121.004 243.383Z" fill="#37415C"/>
<path fill-rule="evenodd" clip-rule="evenodd" d="M118.75 251H118V249H118.75V251ZM121.75 251H120.25V249H121.75V251ZM124 251H123.25V249H124V251Z" fill="#37415C"/>
<path fill-rule="evenodd" clip-rule="evenodd" d="M122 246H120V244H122V246Z" fill="#37415C"/>
<path fill-rule="evenodd" clip-rule="evenodd" d="M117.125 255L116 255L116 253L117.125 253L117.125 255ZM121.625 255L119.375 255L119.375 253L121.625 253L121.625 255ZM125 255L123.875 255L123.875 253L125 253L125 255Z" fill="#37415C"/>
<path fill-rule="evenodd" clip-rule="evenodd" d="M116.833 259L116 259L116 257L116.833 257L116.833 259ZM120.167 259L118.5 259L118.5 257L120.167 257L120.167 259ZM123.5 259L121.833 259L121.833 257L123.5 257L123.5 259ZM126 259L125.167 259L125.167 257L126 257L126 259Z" fill="#37415C"/>
<path fill-rule="evenodd" clip-rule="evenodd" d="M137.272 170.142C137.811 170.126 138.242 169.685 138.242 169.143C138.242 169.141 138.242 169.138 138.242 169.135C138.243 169.104 138.243 169.006 138.234 168.922C138.234 168.921 138.234 168.92 138.234 168.918C138.229 168.879 138.21 168.704 138.106 168.519C138.043 168.406 137.931 168.257 137.744 168.144C137.55 168.028 137.349 167.994 137.184 168.001C136.924 168.011 136.738 168.121 136.703 168.141C136.702 168.142 136.701 168.142 136.7 168.143C136.648 168.173 136.604 168.205 136.592 168.213L136.59 168.215C136.58 168.222 136.572 168.227 136.567 168.232C136.551 168.243 136.547 168.245 136.538 168.251C136.268 168.423 135.999 168.559 135.669 168.726C135.614 168.754 135.558 168.783 135.499 168.813C134.263 169.442 133.451 170.537 132.984 171.693C132.571 172.714 132.303 173.794 132.267 174.938C132.232 176.001 132.057 177.024 131.869 178.118C131.789 178.584 131.707 179.063 131.632 179.563C131.516 180.345 131.269 181.098 130.977 181.922C130.941 182.024 130.904 182.128 130.866 182.233C130.61 182.95 130.33 183.732 130.142 184.549C129.938 185.439 129.689 186.26 129.303 186.944C129.017 187.45 128.786 187.984 128.579 188.475C128.549 188.546 128.52 188.615 128.491 188.684C128.313 189.108 128.15 189.497 127.965 189.867C127.59 190.617 127 191.834 127 193.001C127 193.553 127.448 194.001 128 194.001C128.552 194.001 129 193.553 129 193.001C129 192.38 129.347 191.577 129.754 190.761C129.972 190.326 130.163 189.869 130.339 189.449C130.367 189.382 130.395 189.316 130.422 189.251C130.628 188.762 130.82 188.324 131.044 187.928C131.575 186.989 131.874 185.942 132.091 184.997C132.251 184.304 132.487 183.64 132.747 182.914C132.785 182.808 132.823 182.7 132.862 182.59C133.157 181.759 133.463 180.847 133.61 179.858C133.67 179.454 133.743 179.032 133.817 178.597C134.014 177.449 134.226 176.212 134.266 175.002C134.294 174.134 134.497 173.287 134.838 172.443C135.175 171.609 135.707 170.951 136.406 170.595C136.457 170.569 136.508 170.543 136.56 170.517C136.784 170.404 137.026 170.282 137.272 170.142Z" fill="#37415C"/>
<path d="M328.264 193H234.736C233.249 193 232.282 194.565 232.947 195.894L279.711 289.422C280.448 290.896 282.552 290.896 283.289 289.422L330.053 195.894C330.718 194.565 329.751 193 328.264 193Z" fill="white" stroke="#37415C" stroke-width="2"/>
<path fill-rule="evenodd" clip-rule="evenodd" d="M281.807 167.168C282.267 167.474 282.391 168.095 282.085 168.555C281.854 168.9 281.572 169.194 281.355 169.421C281.349 169.427 281.343 169.433 281.337 169.439C281.097 169.689 280.923 169.872 280.787 170.071C280.112 171.055 279.544 171.935 279.03 172.961C277.78 175.463 277.651 178.503 278.735 181.069C278.899 181.458 279.107 181.823 279.349 182.249C279.364 182.276 279.379 182.303 279.395 182.331C279.646 182.773 279.931 183.281 280.146 183.851C280.541 184.896 280.641 185.829 280.641 186.855C280.641 187.062 280.648 187.256 280.656 187.47C280.66 187.599 280.665 187.735 280.669 187.885C280.679 188.255 280.679 188.67 280.627 189.087C280.546 189.73 280.333 190.325 280.162 190.802C280.138 190.866 280.116 190.929 280.095 190.989C279.903 191.531 279.781 191.952 279.781 192.396C279.781 192.948 279.333 193.396 278.781 193.396C278.228 193.396 277.781 192.948 277.781 192.396C277.781 191.585 278.01 190.886 278.209 190.324C278.233 190.255 278.257 190.188 278.28 190.123C278.457 189.625 278.591 189.248 278.642 188.839C278.675 188.573 278.679 188.279 278.67 187.937C278.667 187.834 278.663 187.719 278.659 187.599C278.65 187.357 278.641 187.094 278.641 186.855C278.641 185.98 278.558 185.305 278.275 184.558C278.121 184.151 277.91 183.765 277.656 183.318C277.637 183.285 277.618 183.251 277.599 183.217C277.368 182.812 277.104 182.349 276.892 181.847C275.575 178.726 275.737 175.075 277.242 172.067C277.816 170.917 278.445 169.949 279.138 168.939C279.374 168.595 279.654 168.304 279.87 168.079C279.878 168.07 279.887 168.062 279.895 168.054C280.135 167.803 280.299 167.628 280.421 167.445C280.727 166.986 281.348 166.862 281.807 167.168Z" fill="#37415C"/>
<path d="M273 232C273 235.314 270.314 238 267 238C263.686 238 261 235.314 261 232C261 228.686 263.686 226 267 226C270.314 226 273 228.686 273 232Z" fill="#37415C"/>
<path d="M301 232C301 235.314 298.314 238 295 238C291.686 238 289 235.314 289 232C289 228.686 291.686 226 295 226C298.314 226 301 228.686 301 232Z" fill="#37415C"/>
<path d="M274.446 259.68L280.057 243.063C280.371 242.131 281.701 242.165 281.967 243.112L286.643 259.729C286.822 260.367 286.343 261 285.68 261H275.393C274.709 261 274.227 260.328 274.446 259.68Z" fill="#37415C"/>
<path fill-rule="evenodd" clip-rule="evenodd" d="M297.272 170.142C297.811 170.126 298.242 169.685 298.242 169.143C298.242 169.141 298.242 169.138 298.242 169.135C298.243 169.104 298.243 169.006 298.234 168.922C298.234 168.921 298.234 168.92 298.234 168.918C298.229 168.879 298.21 168.704 298.106 168.519C298.043 168.406 297.931 168.257 297.744 168.144C297.55 168.028 297.349 167.994 297.184 168.001C296.924 168.011 296.738 168.121 296.703 168.141C296.702 168.142 296.701 168.142 296.7 168.143C296.648 168.173 296.604 168.205 296.592 168.213L296.59 168.215C296.58 168.222 296.572 168.227 296.567 168.232C296.551 168.243 296.547 168.245 296.538 168.251C296.268 168.423 295.999 168.559 295.669 168.726C295.614 168.754 295.558 168.783 295.499 168.813C294.263 169.442 293.451 170.537 292.984 171.693C292.571 172.714 292.303 173.794 292.267 174.938C292.232 176.001 292.057 177.024 291.869 178.118C291.789 178.584 291.707 179.063 291.632 179.563C291.516 180.345 291.269 181.098 290.977 181.922C290.941 182.024 290.904 182.128 290.866 182.233C290.61 182.95 290.33 183.732 290.142 184.549C289.938 185.439 289.689 186.26 289.303 186.944C289.017 187.45 288.786 187.984 288.579 188.475C288.549 188.546 288.52 188.615 288.491 188.684C288.313 189.108 288.15 189.497 287.965 189.867C287.59 190.617 287 191.834 287 193.001C287 193.553 287.448 194.001 288 194.001C288.552 194.001 289 193.553 289 193.001C289 192.38 289.347 191.577 289.754 190.761C289.972 190.326 290.163 189.869 290.339 189.449C290.367 189.382 290.395 189.316 290.422 189.251C290.628 188.762 290.82 188.324 291.044 187.928C291.575 186.989 291.874 185.942 292.091 184.997C292.251 184.304 292.487 183.64 292.747 182.914C292.785 182.808 292.823 182.7 292.862 182.59C293.157 181.759 293.463 180.847 293.61 179.858C293.67 179.454 293.743 179.032 293.817 178.597C294.014 177.449 294.226 176.212 294.266 175.002C294.294 174.134 294.497 173.287 294.838 172.443C295.175 171.609 295.707 170.951 296.406 170.595C296.457 170.569 296.508 170.543 296.56 170.517C296.784 170.404 297.026 170.282 297.272 170.142Z" fill="#37415C"/>
<path fill-rule="evenodd" clip-rule="evenodd" d="M266.198 169.547C266.75 169.547 267.198 169.995 267.198 170.547C267.198 171.264 267.071 171.989 266.929 172.647C266.86 172.965 266.794 173.245 266.731 173.51C266.651 173.847 266.577 174.16 266.51 174.501C266.477 174.669 266.444 174.833 266.412 174.994C266.199 176.058 266.015 176.972 266.015 177.962C266.015 178.217 266.011 178.451 266.007 178.676C266 179.053 265.993 179.405 266.009 179.783C266.031 180.353 266.103 180.847 266.271 181.28C266.677 182.331 267.031 183.164 267.611 184.002C268.005 184.571 268.342 185.204 268.643 185.77C268.75 185.971 268.853 186.164 268.953 186.343C268.972 186.378 268.992 186.414 269.012 186.45C269.422 187.185 269.992 188.206 269.992 189.396V193.975C269.992 194.528 269.544 194.975 268.992 194.975C268.44 194.975 267.992 194.528 267.992 193.975V189.396C267.992 188.759 267.676 188.163 267.204 187.314C267.067 187.068 266.943 186.834 266.824 186.611C266.542 186.082 266.29 185.607 265.967 185.141C265.243 184.096 264.82 183.074 264.405 182.001C264.126 181.278 264.037 180.539 264.01 179.863C263.993 179.435 264.001 178.97 264.008 178.55C264.012 178.34 264.015 178.14 264.015 177.962C264.015 176.758 264.242 175.634 264.454 174.583C264.486 174.425 264.517 174.27 264.548 174.116C264.616 173.768 264.711 173.363 264.802 172.975C264.865 172.709 264.925 172.451 264.974 172.225C265.107 171.606 265.198 171.047 265.198 170.547C265.198 169.995 265.645 169.547 266.198 169.547Z" fill="#37415C"/>
<circle cx="440.5" cy="242" r="49" fill="white" stroke="#37415C" stroke-width="2"/>
<path fill-rule="evenodd" clip-rule="evenodd" d="M427 236C429.209 236 431 234.209 431 232C431 229.791 429.209 228 427 228C424.791 228 423 229.791 423 232C423 234.209 424.791 236 427 236ZM427 238C430.314 238 433 235.314 433 232C433 228.686 430.314 226 427 226C423.686 226 421 228.686 421 232C421 235.314 423.686 238 427 238Z" fill="#37415C"/>
<path fill-rule="evenodd" clip-rule="evenodd" d="M455 236C457.209 236 459 234.209 459 232C459 229.791 457.209 228 455 228C452.791 228 451 229.791 451 232C451 234.209 452.791 236 455 236ZM455 238C458.314 238 461 235.314 461 232C461 228.686 458.314 226 455 226C451.686 226 449 228.686 449 232C449 235.314 451.686 238 455 238Z" fill="#37415C"/>
<path fill-rule="evenodd" clip-rule="evenodd" d="M439.109 242.743C439.738 240.88 442.397 240.948 442.929 242.841L447.605 259.458C447.964 260.734 447.005 262 445.68 262H435.393C434.025 262 433.061 260.656 433.498 259.36L439.109 242.743ZM441.004 243.383L435.393 260L445.68 260L441.004 243.383Z" fill="#37415C"/>
<path fill-rule="evenodd" clip-rule="evenodd" d="M441.807 167.168C442.267 167.474 442.391 168.095 442.085 168.555C441.854 168.9 441.572 169.194 441.355 169.421C441.349 169.427 441.343 169.433 441.337 169.439C441.097 169.689 440.923 169.872 440.787 170.071C440.112 171.055 439.544 171.935 439.03 172.961C437.78 175.463 437.651 178.503 438.735 181.069C438.899 181.458 439.107 181.823 439.349 182.249C439.364 182.276 439.379 182.303 439.395 182.331C439.646 182.773 439.931 183.281 440.146 183.851C440.541 184.896 440.641 185.829 440.641 186.855C440.641 187.062 440.648 187.256 440.656 187.47C440.66 187.599 440.665 187.735 440.669 187.885C440.679 188.255 440.679 188.67 440.627 189.087C440.546 189.73 440.333 190.325 440.162 190.802C440.138 190.866 440.116 190.929 440.095 190.989C439.903 191.531 439.781 191.952 439.781 192.396C439.781 192.948 439.333 193.396 438.781 193.396C438.228 193.396 437.781 192.948 437.781 192.396C437.781 191.585 438.01 190.886 438.209 190.324C438.233 190.255 438.257 190.188 438.28 190.123C438.457 189.625 438.591 189.248 438.642 188.839C438.675 188.573 438.679 188.279 438.67 187.937C438.667 187.834 438.663 187.719 438.659 187.599C438.65 187.357 438.641 187.094 438.641 186.855C438.641 185.98 438.558 185.305 438.275 184.558C438.121 184.151 437.91 183.765 437.656 183.318C437.637 183.285 437.618 183.251 437.599 183.217C437.368 182.812 437.104 182.349 436.892 181.847C435.575 178.726 435.737 175.075 437.242 172.067C437.816 170.917 438.445 169.949 439.138 168.939C439.374 168.595 439.654 168.304 439.87 168.079C439.878 168.07 439.887 168.062 439.895 168.054C440.135 167.803 440.299 167.628 440.421 167.445C440.727 166.986 441.348 166.862 441.807 167.168Z" fill="#37415C"/>
<path d="M168.264 353H74.7361C73.2493 353 72.2823 354.565 72.9472 355.894L119.711 449.422C120.448 450.896 122.552 450.896 123.289 449.422L170.053 355.894C170.718 354.565 169.751 353 168.264 353Z" fill="white" stroke="#37415C" stroke-width="2"/>
<path fill-rule="evenodd" clip-rule="evenodd" d="M121.807 327.168C122.267 327.474 122.391 328.095 122.085 328.555C121.854 328.9 121.572 329.194 121.355 329.421C121.349 329.427 121.343 329.433 121.337 329.439C121.097 329.689 120.923 329.872 120.787 330.071C120.112 331.055 119.544 331.935 119.03 332.961C117.78 335.463 117.651 338.503 118.735 341.069C118.899 341.458 119.107 341.823 119.349 342.249C119.364 342.276 119.379 342.303 119.395 342.331C119.646 342.773 119.931 343.281 120.146 343.851C120.541 344.896 120.641 345.829 120.641 346.855C120.641 347.062 120.648 347.256 120.656 347.47C120.66 347.599 120.665 347.735 120.669 347.885C120.679 348.255 120.679 348.67 120.627 349.087C120.546 349.73 120.333 350.325 120.162 350.802C120.138 350.866 120.116 350.929 120.095 350.989C119.903 351.531 119.781 351.952 119.781 352.396C119.781 352.948 119.333 353.396 118.781 353.396C118.228 353.396 117.781 352.948 117.781 352.396C117.781 351.585 118.01 350.886 118.209 350.324C118.233 350.255 118.257 350.188 118.28 350.123C118.457 349.625 118.591 349.248 118.642 348.839C118.675 348.573 118.679 348.279 118.67 347.937C118.667 347.834 118.663 347.719 118.659 347.599C118.65 347.357 118.641 347.094 118.641 346.855C118.641 345.98 118.558 345.305 118.275 344.558C118.121 344.151 117.91 343.765 117.656 343.318C117.637 343.285 117.618 343.251 117.599 343.217C117.368 342.812 117.104 342.349 116.892 341.847C115.575 338.726 115.737 335.075 117.242 332.067C117.816 330.917 118.445 329.949 119.138 328.939C119.374 328.595 119.654 328.304 119.87 328.079C119.878 328.07 119.887 328.062 119.895 328.054C120.135 327.803 120.299 327.628 120.421 327.445C120.727 326.986 121.348 326.862 121.807 327.168Z" fill="#37415C"/>
<path d="M113 392C113 395.314 110.314 398 107 398C103.686 398 101 395.314 101 392C101 388.686 103.686 386 107 386C110.314 386 113 388.686 113 392Z" fill="#37415C"/>
<path d="M141 392C141 395.314 138.314 398 135 398C131.686 398 129 395.314 129 392C129 388.686 131.686 386 135 386C138.314 386 141 388.686 141 392Z" fill="#37415C"/>
<path fill-rule="evenodd" clip-rule="evenodd" d="M119.109 402.743C119.738 400.88 122.397 400.948 122.929 402.841L127.605 419.458C127.964 420.734 127.005 422 125.68 422H115.393C114.025 422 113.061 420.656 113.498 419.36L119.109 402.743ZM121.004 403.383L115.393 420L125.68 420L121.004 403.383Z" fill="#37415C"/>
<circle cx="280.5" cy="402" r="49" fill="white" stroke="#37415C" stroke-width="2"/>
<path fill-rule="evenodd" clip-rule="evenodd" d="M267 396C269.209 396 271 394.209 271 392C271 389.791 269.209 388 267 388C264.791 388 263 389.791 263 392C263 394.209 264.791 396 267 396ZM267 398C270.314 398 273 395.314 273 392C273 388.686 270.314 386 267 386C263.686 386 261 388.686 261 392C261 395.314 263.686 398 267 398Z" fill="#37415C"/>
<path fill-rule="evenodd" clip-rule="evenodd" d="M295 396C297.209 396 299 394.209 299 392C299 389.791 297.209 388 295 388C292.791 388 291 389.791 291 392C291 394.209 292.791 396 295 396ZM295 398C298.314 398 301 395.314 301 392C301 388.686 298.314 386 295 386C291.686 386 289 388.686 289 392C289 395.314 291.686 398 295 398Z" fill="#37415C"/>
<path fill-rule="evenodd" clip-rule="evenodd" d="M279.109 402.743C279.738 400.88 282.397 400.948 282.929 402.841L287.605 419.458C287.964 420.734 287.005 422 285.68 422H275.393C274.025 422 273.061 420.656 273.498 419.36L279.109 402.743ZM281.004 403.383L275.393 420L285.68 420L281.004 403.383Z" fill="#37415C"/>
<path fill-rule="evenodd" clip-rule="evenodd" d="M278.75 411H278V409H278.75V411ZM281.75 411H280.25V409H281.75V411ZM284 411H283.25V409H284V411Z" fill="#37415C"/>
<path fill-rule="evenodd" clip-rule="evenodd" d="M282 406H280V404H282V406Z" fill="#37415C"/>
<path fill-rule="evenodd" clip-rule="evenodd" d="M277.125 415L276 415L276 413L277.125 413L277.125 415ZM281.625 415L279.375 415L279.375 413L281.625 413L281.625 415ZM285 415L283.875 415L283.875 413L285 413L285 415Z" fill="#37415C"/>
<path fill-rule="evenodd" clip-rule="evenodd" d="M276.833 419L276 419L276 417L276.833 417L276.833 419ZM280.167 419L278.5 419L278.5 417L280.167 417L280.167 419ZM283.5 419L281.833 419L281.833 417L283.5 417L283.5 419ZM286 419L285.167 419L285.167 417L286 417L286 419Z" fill="#37415C"/>
<path fill-rule="evenodd" clip-rule="evenodd" d="M281.807 327.168C282.267 327.474 282.391 328.095 282.085 328.555C281.854 328.9 281.572 329.194 281.355 329.421C281.349 329.427 281.343 329.433 281.337 329.439C281.097 329.689 280.923 329.872 280.787 330.071C280.112 331.055 279.544 331.935 279.03 332.961C277.78 335.463 277.651 338.503 278.735 341.069C278.899 341.458 279.107 341.823 279.349 342.249C279.364 342.276 279.379 342.303 279.395 342.331C279.646 342.773 279.931 343.281 280.146 343.851C280.541 344.896 280.641 345.829 280.641 346.855C280.641 347.062 280.648 347.256 280.656 347.47C280.66 347.599 280.665 347.735 280.669 347.885C280.679 348.255 280.679 348.67 280.627 349.087C280.546 349.73 280.333 350.325 280.162 350.802C280.138 350.866 280.116 350.929 280.095 350.989C279.903 351.531 279.781 351.952 279.781 352.396C279.781 352.948 279.333 353.396 278.781 353.396C278.228 353.396 277.781 352.948 277.781 352.396C277.781 351.585 278.01 350.886 278.209 350.324C278.233 350.255 278.257 350.188 278.28 350.123C278.457 349.625 278.591 349.248 278.642 348.839C278.675 348.573 278.679 348.279 278.67 347.937C278.667 347.834 278.663 347.719 278.659 347.599C278.65 347.357 278.641 347.094 278.641 346.855C278.641 345.98 278.558 345.305 278.275 344.558C278.121 344.151 277.91 343.765 277.656 343.318C277.637 343.285 277.618 343.251 277.599 343.217C277.368 342.812 277.104 342.349 276.892 341.847C275.575 338.726 275.737 335.075 277.242 332.067C277.816 330.917 278.445 329.949 279.138 328.939C279.374 328.595 279.654 328.304 279.87 328.079C279.878 328.07 279.887 328.062 279.895 328.054C280.135 327.803 280.299 327.628 280.421 327.445C280.727 326.986 281.348 326.862 281.807 327.168Z" fill="#37415C"/>
<path fill-rule="evenodd" clip-rule="evenodd" d="M297.272 330.142C297.811 330.126 298.242 329.685 298.242 329.143C298.242 329.141 298.242 329.138 298.242 329.135C298.243 329.104 298.243 329.006 298.234 328.922C298.234 328.921 298.234 328.92 298.234 328.918C298.229 328.879 298.21 328.704 298.106 328.519C298.043 328.406 297.931 328.257 297.744 328.144C297.55 328.028 297.349 327.994 297.184 328.001C296.924 328.011 296.738 328.121 296.703 328.141C296.702 328.142 296.701 328.142 296.7 328.143C296.648 328.173 296.604 328.205 296.592 328.213L296.59 328.215C296.58 328.222 296.572 328.227 296.567 328.232C296.551 328.243 296.547 328.245 296.538 328.251C296.268 328.423 295.999 328.559 295.669 328.726C295.614 328.754 295.558 328.783 295.499 328.813C294.263 329.442 293.451 330.537 292.984 331.693C292.571 332.714 292.303 333.794 292.267 334.938C292.232 336.001 292.057 337.024 291.869 338.118C291.789 338.584 291.707 339.063 291.632 339.563C291.516 340.345 291.269 341.098 290.977 341.922C290.941 342.024 290.904 342.128 290.866 342.233C290.61 342.95 290.33 343.732 290.142 344.549C289.938 345.439 289.689 346.26 289.303 346.944C289.017 347.45 288.786 347.984 288.579 348.475C288.549 348.546 288.52 348.615 288.491 348.684C288.313 349.108 288.15 349.497 287.965 349.867C287.59 350.617 287 351.834 287 353.001C287 353.553 287.448 354.001 288 354.001C288.552 354.001 289 353.553 289 353.001C289 352.38 289.347 351.577 289.754 350.761C289.972 350.326 290.163 349.869 290.339 349.449C290.367 349.382 290.395 349.316 290.422 349.251C290.628 348.762 290.82 348.324 291.044 347.928C291.575 346.989 291.874 345.942 292.091 344.997C292.251 344.304 292.487 343.64 292.747 342.914C292.785 342.808 292.823 342.7 292.862 342.59C293.157 341.759 293.463 340.847 293.61 339.858C293.67 339.454 293.743 339.032 293.817 338.597C294.014 337.449 294.226 336.212 294.266 335.002C294.294 334.134 294.497 333.287 294.838 332.443C295.175 331.609 295.707 330.951 296.406 330.595C296.457 330.569 296.508 330.543 296.56 330.517C296.784 330.404 297.026 330.282 297.272 330.142Z" fill="#37415C"/>
<g clip-path="url(#clip0_1424_4315)">
<circle cx="440.5" cy="390" r="70" fill="#37415C"/>
<g clip-path="url(#clip1_1424_4315)">
<path d="M440 402.667C441.38 402.667 442.5 403.787 442.5 405.167C442.5 406.547 441.38 407.667 440 407.667C438.62 407.667 437.5 406.547 437.5 405.167C437.5 403.787 438.62 402.667 440 402.667ZM440 374.334C445.523 374.334 450 378.811 450 384.334C450 387.942 448.745 389.817 445.543 392.539C442.332 395.267 441.667 396.496 441.667 399.334H438.333C438.333 395.211 439.645 393.176 443.385 389.999C445.913 387.851 446.667 386.724 446.667 384.334C446.667 380.651 443.683 377.667 440 377.667C436.317 377.667 433.333 380.651 433.333 384.334V386.001H430V384.334C430 378.811 434.477 374.334 440 374.334Z" fill="white"/>
</g>
</g>
<defs>
<clipPath id="clip0_1424_4315">
<rect width="140" height="140" fill="white" transform="translate(370 320)"/>
</clipPath>
<clipPath id="clip1_1424_4315">
<rect width="40" height="40" fill="white" transform="translate(420 371)"/>
</clipPath>
</defs>
</svg>
