<svg width="140" height="140" viewBox="0 0 140 140" fill="none" xmlns="http://www.w3.org/2000/svg">
<path fill-rule="evenodd" clip-rule="evenodd" d="M71.8073 7.16806C72.2668 7.47441 72.391 8.09528 72.0846 8.55481C71.8542 8.90049 71.5722 9.19412 71.3546 9.42068C71.3489 9.42668 71.3431 9.43264 71.3375 9.43855C71.0969 9.68914 70.9234 9.87245 70.7874 10.0705C70.1115 11.0554 69.5436 11.9346 69.0304 12.9611C67.7796 15.4626 67.6514 18.5028 68.7348 21.0688C68.8991 21.458 69.1066 21.823 69.3485 22.2486C69.3639 22.2757 69.3795 22.303 69.3952 22.3306C69.6465 22.7732 69.931 23.2814 70.1461 23.8508C70.5409 24.8958 70.6405 25.8294 70.6405 26.8551C70.6405 27.0618 70.6477 27.256 70.6555 27.4702C70.6603 27.599 70.6653 27.7351 70.6692 27.8854C70.6787 28.2549 70.6789 28.6697 70.6268 29.0867C70.5464 29.7302 70.3327 30.3254 70.1617 30.8017C70.1384 30.8665 70.1159 30.929 70.0947 30.9892C69.9034 31.5315 69.7808 31.9522 69.7808 32.3958C69.7808 32.9481 69.333 33.3958 68.7808 33.3958C68.2285 33.3958 67.7808 32.9481 67.7808 32.3958C67.7808 31.5848 68.0103 30.886 68.2086 30.3239C68.2331 30.2546 68.2569 30.1876 68.28 30.1228C68.4571 29.6249 68.591 29.2484 68.6423 28.8387C68.6754 28.5733 68.6787 28.2785 68.6698 27.937C68.6672 27.8337 68.663 27.719 68.6587 27.5989C68.65 27.3574 68.6405 27.0938 68.6405 26.8551C68.6405 25.98 68.5575 25.305 68.2752 24.5576C68.1215 24.1507 67.9098 23.7652 67.6561 23.3183C67.6371 23.285 67.6179 23.2513 67.5985 23.2171C67.3681 22.8123 67.1045 22.3493 66.8923 21.8467C65.5747 18.7261 65.7372 15.0752 67.2415 12.0666C67.8163 10.917 68.4453 9.94886 69.1384 8.93884C69.374 8.59549 69.6537 8.30433 69.8702 8.07901C69.8784 8.07041 69.8866 8.06191 69.8947 8.05351C70.135 7.80314 70.2987 7.6281 70.4205 7.44541C70.7269 6.98588 71.3477 6.8617 71.8073 7.16806Z" fill="#37415C"/>
<path fill-rule="evenodd" clip-rule="evenodd" d="M116 34H24C22.8954 34 22 34.8954 22 36V128C22 129.105 22.8954 130 24 130H116C117.105 130 118 129.105 118 128V36C118 34.8954 117.105 34 116 34ZM24 32C21.7909 32 20 33.7909 20 36V128C20 130.209 21.7909 132 24 132H116C118.209 132 120 130.209 120 128V36C120 33.7909 118.209 32 116 32H24Z" fill="#37415C"/>
<path fill-rule="evenodd" clip-rule="evenodd" d="M56 76C58.2091 76 60 74.2091 60 72C60 69.7909 58.2091 68 56 68C53.7909 68 52 69.7909 52 72C52 74.2091 53.7909 76 56 76ZM56 78C59.3137 78 62 75.3137 62 72C62 68.6863 59.3137 66 56 66C52.6863 66 50 68.6863 50 72C50 75.3137 52.6863 78 56 78Z" fill="#37415C"/>
<path fill-rule="evenodd" clip-rule="evenodd" d="M84 76C86.2091 76 88 74.2091 88 72C88 69.7909 86.2091 68 84 68C81.7909 68 80 69.7909 80 72C80 74.2091 81.7909 76 84 76ZM84 78C87.3137 78 90 75.3137 90 72C90 68.6863 87.3137 66 84 66C80.6863 66 78 68.6863 78 72C78 75.3137 80.6863 78 84 78Z" fill="#37415C"/>
<path d="M64.4457 99.6801L70.0566 83.0632C70.3711 82.1316 71.7003 82.1657 71.9666 83.1122L76.6424 99.7291C76.8219 100.367 76.3425 101 75.6798 101H65.3931C64.7089 101 64.2268 100.328 64.4457 99.6801Z" fill="#37415C"/>
</svg>
