<svg width="140" height="140" viewBox="0 0 140 140" fill="none" xmlns="http://www.w3.org/2000/svg">
<path fill-rule="evenodd" clip-rule="evenodd" d="M70 130C96.5097 130 118 108.51 118 82C118 55.4903 96.5097 34 70 34C43.4903 34 22 55.4903 22 82C22 108.51 43.4903 130 70 130ZM70 132C97.6142 132 120 109.614 120 82C120 54.3858 97.6142 32 70 32C42.3858 32 20 54.3858 20 82C20 109.614 42.3858 132 70 132Z" fill="#37415C"/>
<path d="M63 72C63 75.3137 60.3137 78 57 78C53.6863 78 51 75.3137 51 72C51 68.6863 53.6863 66 57 66C60.3137 66 63 68.6863 63 72Z" fill="#37415C"/>
<path fill-rule="evenodd" clip-rule="evenodd" d="M85 76C87.2091 76 89 74.2091 89 72C89 69.7909 87.2091 68 85 68C82.7909 68 81 69.7909 81 72C81 74.2091 82.7909 76 85 76ZM85 78C88.3137 78 91 75.3137 91 72C91 68.6863 88.3137 66 85 66C81.6863 66 79 68.6863 79 72C79 75.3137 81.6863 78 85 78Z" fill="#37415C"/>
<path fill-rule="evenodd" clip-rule="evenodd" d="M69.1092 82.7433C69.7383 80.8801 72.3966 80.9484 72.9293 82.8414L77.605 99.4583C77.9641 100.734 77.0052 102 75.6798 102H65.3932C64.0248 102 63.0605 100.657 63.4983 99.3602L69.1092 82.7433ZM71.0041 83.3831L65.3932 100L75.6798 100L71.0041 83.3831Z" fill="#37415C"/>
<path fill-rule="evenodd" clip-rule="evenodd" d="M68.75 91H68V89H68.75V91ZM71.75 91H70.25V89H71.75V91ZM74 91H73.25V89H74V91Z" fill="#37415C"/>
<path fill-rule="evenodd" clip-rule="evenodd" d="M72 86H70V84H72V86Z" fill="#37415C"/>
<path fill-rule="evenodd" clip-rule="evenodd" d="M67.125 95L66 95L66 93L67.125 93L67.125 95ZM71.625 95L69.375 95L69.375 93L71.625 93L71.625 95ZM75 95L73.875 95L73.875 93L75 93L75 95Z" fill="#37415C"/>
<path fill-rule="evenodd" clip-rule="evenodd" d="M66.8333 99L66 99L66 97L66.8333 97L66.8333 99ZM70.1667 99L68.5 99L68.5 97L70.1667 97L70.1667 99ZM73.5 99L71.8333 99L71.8333 97L73.5 97L73.5 99ZM76 99L75.1667 99L75.1667 97L76 97L76 99Z" fill="#37415C"/>
<path fill-rule="evenodd" clip-rule="evenodd" d="M71.8073 7.16806C72.2668 7.47441 72.391 8.09528 72.0846 8.55481C71.8542 8.90049 71.5722 9.19412 71.3546 9.42068C71.3489 9.42668 71.3431 9.43264 71.3375 9.43855C71.0969 9.68914 70.9234 9.87245 70.7874 10.0705C70.1115 11.0554 69.5436 11.9346 69.0304 12.9611C67.7796 15.4626 67.6514 18.5028 68.7348 21.0688C68.8991 21.458 69.1066 21.823 69.3485 22.2486C69.3639 22.2757 69.3795 22.303 69.3952 22.3306C69.6465 22.7732 69.931 23.2814 70.1461 23.8508C70.5409 24.8958 70.6405 25.8294 70.6405 26.8551C70.6405 27.0618 70.6477 27.256 70.6555 27.4702C70.6603 27.599 70.6653 27.7351 70.6692 27.8854C70.6787 28.2549 70.6789 28.6697 70.6268 29.0867C70.5464 29.7302 70.3327 30.3254 70.1617 30.8017C70.1384 30.8665 70.1159 30.929 70.0947 30.9892C69.9034 31.5315 69.7808 31.9522 69.7808 32.3958C69.7808 32.9481 69.333 33.3958 68.7808 33.3958C68.2285 33.3958 67.7808 32.9481 67.7808 32.3958C67.7808 31.5848 68.0103 30.886 68.2086 30.3239C68.2331 30.2546 68.2569 30.1876 68.28 30.1228C68.4571 29.6249 68.591 29.2484 68.6423 28.8387C68.6754 28.5733 68.6787 28.2785 68.6698 27.937C68.6672 27.8337 68.663 27.719 68.6587 27.5989C68.65 27.3574 68.6405 27.0938 68.6405 26.8551C68.6405 25.98 68.5575 25.305 68.2752 24.5576C68.1215 24.1507 67.9098 23.7652 67.6561 23.3183C67.6371 23.285 67.6179 23.2513 67.5985 23.2171C67.3681 22.8123 67.1045 22.3493 66.8923 21.8467C65.5747 18.7261 65.7372 15.0752 67.2415 12.0666C67.8163 10.917 68.4453 9.94886 69.1384 8.93884C69.374 8.59549 69.6537 8.30433 69.8702 8.07901C69.8784 8.07041 69.8866 8.06191 69.8947 8.05351C70.135 7.80314 70.2987 7.6281 70.4205 7.44541C70.7269 6.98588 71.3477 6.8617 71.8073 7.16806Z" fill="#37415C"/>
<path fill-rule="evenodd" clip-rule="evenodd" d="M87.2723 10.1421C87.8108 10.1263 88.2424 9.68479 88.2424 9.14251C88.2424 9.14083 88.2424 9.13837 88.2424 9.13523C88.2426 9.10419 88.2432 9.00583 88.2339 8.92157C88.2338 8.92062 88.2337 8.91953 88.2335 8.91832C88.2293 8.87906 88.2104 8.70422 88.1065 8.51865C88.0431 8.40555 87.931 8.2569 87.7439 8.14445C87.55 8.02794 87.349 7.99437 87.1835 8.00074C86.9241 8.01073 86.7378 8.12057 86.7033 8.14087C86.702 8.14164 86.701 8.14227 86.7001 8.14278C86.648 8.17302 86.6042 8.20451 86.5917 8.21345L86.5901 8.21464C86.5799 8.22192 86.5724 8.22734 86.5665 8.23154C86.5509 8.24279 86.5475 8.24528 86.5384 8.25108C86.2682 8.42298 85.9994 8.55909 85.6695 8.72615C85.6145 8.75399 85.5578 8.7827 85.4991 8.81257C84.2631 9.44181 83.451 10.5374 82.9837 11.6933C82.5709 12.7144 82.3034 13.7937 82.2665 14.9375C82.2322 16.0013 82.0566 17.0241 81.8688 18.1177C81.7888 18.5838 81.7065 19.0628 81.6321 19.5632C81.5158 20.3447 81.269 21.0982 80.9769 21.9222C80.9408 22.0243 80.9037 22.1278 80.8662 22.2328C80.6097 22.9499 80.3299 23.7323 80.142 24.5494C79.9376 25.4385 79.6894 26.26 79.3027 26.9442C79.0166 27.4504 78.7856 27.984 78.5789 28.4751C78.5492 28.5456 78.52 28.6151 78.4913 28.6836C78.3132 29.1084 78.1504 29.4967 77.9653 29.8669C77.5903 30.617 77 31.8342 77 33.0008C77 33.5531 77.4477 34.0008 78 34.0008C78.5523 34.0008 79 33.5531 79 33.0008C79 32.3797 79.3466 31.5765 79.7542 30.7613C79.9716 30.3264 80.1631 29.8693 80.3393 29.4486C80.3673 29.3818 80.3949 29.3159 80.4221 29.2512C80.628 28.7622 80.8203 28.3238 81.0438 27.9283C81.5748 26.9889 81.8742 25.9415 82.0912 24.9974C82.2507 24.3035 82.4874 23.6404 82.7467 22.9142C82.7847 22.8077 82.8232 22.6999 82.862 22.5904C83.1568 21.7587 83.4632 20.8468 83.6103 19.8575C83.6703 19.4542 83.7428 19.0317 83.8174 18.5965C84.0143 17.4487 84.2265 16.212 84.2655 15.002C84.2935 14.1339 84.4967 13.2871 84.838 12.4429C85.1752 11.6085 85.7073 10.9508 86.4065 10.5949C86.4566 10.5694 86.508 10.5434 86.5604 10.5169C86.7841 10.4039 87.0262 10.2816 87.2723 10.1421Z" fill="#37415C"/>
<path fill-rule="evenodd" clip-rule="evenodd" d="M56.6981 9.54639C57.2504 9.54639 57.6981 9.9941 57.6981 10.5464C57.6981 11.2635 57.5713 11.9886 57.4293 12.6467C57.3606 12.9648 57.2945 13.2441 57.2317 13.5092C57.1519 13.8461 57.0776 14.1598 57.0107 14.5006C56.9777 14.6687 56.9448 14.8326 56.9126 14.9932C56.6993 16.0571 56.516 16.9716 56.516 17.9618C56.516 18.2163 56.5116 18.4506 56.5075 18.6759C56.5005 19.0528 56.494 19.4044 56.509 19.7827C56.5317 20.3529 56.6039 20.8463 56.7712 21.2793C57.1774 22.3305 57.531 23.1637 58.1114 24.002C58.5051 24.5707 58.842 25.2031 59.1436 25.7692C59.2509 25.9706 59.3537 26.1637 59.453 26.3424C59.4725 26.3775 59.4924 26.4132 59.5128 26.4497C59.9229 27.1849 60.4924 28.2056 60.4924 29.3954V33.9748C60.4924 34.5271 60.0446 34.9748 59.4924 34.9748C58.9401 34.9748 58.4924 34.5271 58.4924 33.9748V29.3954C58.4924 28.7588 58.176 28.1621 57.7047 27.3137C57.5678 27.0673 57.4435 26.834 57.3244 26.6102C57.0429 26.0818 56.79 25.6069 56.467 25.1404C55.7435 24.0953 55.3205 23.0739 54.9056 22.0001C54.6266 21.2779 54.5375 20.5389 54.5106 19.8622C54.4936 19.4342 54.5016 18.9696 54.5089 18.5496C54.5125 18.339 54.516 18.1397 54.516 17.9618C54.516 16.7575 54.7428 15.633 54.9548 14.5822C54.9865 14.4248 55.0179 14.2691 55.0482 14.1151C55.1164 13.7676 55.2115 13.3624 55.3026 12.9744C55.365 12.7085 55.4255 12.4507 55.4743 12.2249C55.6079 11.6053 55.6981 11.0468 55.6981 10.5464C55.6981 9.9941 56.1459 9.54639 56.6981 9.54639Z" fill="#37415C"/>
</svg>
