<svg width="816" height="156" viewBox="0 0 816 156" fill="none" xmlns="http://www.w3.org/2000/svg">
<circle cx="18" cy="138" r="18" fill="#37415C"/>
<path d="M256 138C256 147.941 247.941 156 238 156C228.059 156 220 147.941 220 138C220 128.059 228.059 120 238 120C247.941 120 256 128.059 256 138Z" fill="white"/>
<path fill-rule="evenodd" clip-rule="evenodd" d="M238 154C246.837 154 254 146.837 254 138C254 129.163 246.837 122 238 122C229.163 122 222 129.163 222 138C222 146.837 229.163 154 238 154ZM238 156C247.941 156 256 147.941 256 138C256 128.059 247.941 120 238 120C228.059 120 220 128.059 220 138C220 147.941 228.059 156 238 156Z" fill="#37415C"/>
<circle cx="298" cy="138" r="18" fill="#37415C"/>
<circle cx="238" cy="78" r="18" fill="#37415C"/>
<path fill-rule="evenodd" clip-rule="evenodd" d="M475 136H501V138H475V136Z" fill="#37415C"/>
<path d="M476 138C476 147.941 467.941 156 458 156C448.059 156 440 147.941 440 138C440 128.059 448.059 120 458 120C467.941 120 476 128.059 476 138Z" fill="white"/>
<path fill-rule="evenodd" clip-rule="evenodd" d="M458 154C466.837 154 474 146.837 474 138C474 129.163 466.837 122 458 122C449.163 122 442 129.163 442 138C442 146.837 449.163 154 458 154ZM458 156C467.941 156 476 147.941 476 138C476 128.059 467.941 120 458 120C448.059 120 440 128.059 440 138C440 147.941 448.059 156 458 156Z" fill="#37415C"/>
<path d="M536 138C536 147.941 527.941 156 518 156C508.059 156 500 147.941 500 138C500 128.059 508.059 120 518 120C527.941 120 536 128.059 536 138Z" fill="white"/>
<path fill-rule="evenodd" clip-rule="evenodd" d="M518 154C526.837 154 534 146.837 534 138C534 129.163 526.837 122 518 122C509.163 122 502 129.163 502 138C502 146.837 509.163 154 518 154ZM518 156C527.941 156 536 147.941 536 138C536 128.059 527.941 120 518 120C508.059 120 500 128.059 500 138C500 147.941 508.059 156 518 156Z" fill="#37415C"/>
<path d="M476 78C476 87.9411 467.941 96 458 96C448.059 96 440 87.9411 440 78C440 68.0589 448.059 60 458 60C467.941 60 476 68.0589 476 78Z" fill="white"/>
<path fill-rule="evenodd" clip-rule="evenodd" d="M458 94C466.837 94 474 86.8366 474 78C474 69.1634 466.837 62 458 62C449.163 62 442 69.1634 442 78C442 86.8366 449.163 94 458 94ZM458 96C467.941 96 476 87.9411 476 78C476 68.0589 467.941 60 458 60C448.059 60 440 68.0589 440 78C440 87.9411 448.059 96 458 96Z" fill="#37415C"/>
<circle cx="458" cy="18" r="18" fill="#37415C"/>
<circle cx="578" cy="138" r="18" fill="#37415C"/>
<path fill-rule="evenodd" clip-rule="evenodd" d="M459 94L459 122L457 122L457 94L459 94Z" fill="#37415C"/>
<rect width="156" height="156" transform="translate(660)" fill="white"/>
<g clip-path="url(#clip0_1405_1384)">
<path d="M738 92C739.656 92 741 93.344 741 95C741 96.656 739.656 98 738 98C736.344 98 735 96.656 735 95C735 93.344 736.344 92 738 92ZM738 58C744.628 58 750 63.372 750 70C750 74.33 748.494 76.58 744.652 79.846C740.798 83.12 740 84.594 740 88H736C736 83.052 737.574 80.61 742.062 76.798C745.096 74.22 746 72.868 746 70C746 65.58 742.42 62 738 62C733.58 62 730 65.58 730 70V72H726V70C726 63.372 731.372 58 738 58Z" fill="#37415C"/>
</g>
<rect x="661" y="1" width="154" height="154" stroke="#37415C" stroke-width="2"/>
<defs>
<clipPath id="clip0_1405_1384">
<rect width="48" height="48" fill="white" transform="translate(714 54)"/>
</clipPath>
</defs>
</svg>
