<svg width="1560" height="360" viewBox="0 0 1560 360" fill="none" xmlns="http://www.w3.org/2000/svg">
<g clip-path="url(#clip0_1409_2546)">
<path d="M359 1H1V359H359V1Z" fill="white" stroke="#37415C" stroke-width="2"/>
<path opacity="0.6" fill-rule="evenodd" clip-rule="evenodd" d="M180 100H80V97H180V100Z" fill="#37415C"/>
<path opacity="0.6" fill-rule="evenodd" clip-rule="evenodd" d="M280 261H180V258H280V261Z" fill="#37415C"/>
<path opacity="0.6" fill-rule="evenodd" clip-rule="evenodd" d="M179 260V100H182V260H179Z" fill="#37415C"/>
<path d="M180 110C185.523 110 190 105.523 190 100C190 94.4772 185.523 90 180 90C174.477 90 170 94.4772 170 100C170 105.523 174.477 110 180 110Z" fill="#37415C"/>
<path d="M180 270C185.523 270 190 265.523 190 260C190 254.477 185.523 250 180 250C174.477 250 170 254.477 170 260C170 265.523 174.477 270 180 270Z" fill="#37415C"/>
<path d="M759 1H401V359H759V1Z" fill="white" stroke="#37415C" stroke-width="2"/>
<path opacity="0.6" fill-rule="evenodd" clip-rule="evenodd" d="M597.77 85.6505L527.059 14.9398L529.181 12.8184L599.891 83.5291L597.77 85.6505Z" fill="#37415C"/>
<path opacity="0.6" fill-rule="evenodd" clip-rule="evenodd" d="M597 346V246H600V346H597Z" fill="#37415C"/>
<path opacity="0.6" fill-rule="evenodd" clip-rule="evenodd" d="M597 246V86H600V246H597Z" fill="#37415C"/>
<path d="M598 96C603.523 96 608 91.5228 608 86C608 80.4772 603.523 76 598 76C592.477 76 588 80.4772 588 86C588 91.5228 592.477 96 598 96Z" fill="#37415C"/>
<path d="M598 256C603.523 256 608 251.523 608 246C608 240.477 603.523 236 598 236C592.477 236 588 240.477 588 246C588 251.523 592.477 256 598 256Z" fill="#37415C"/>
<path d="M1159 1H801V359H1159V1Z" fill="white" stroke="#37415C" stroke-width="2"/>
<path opacity="0.6" fill-rule="evenodd" clip-rule="evenodd" d="M990 145V45H993V145H990Z" fill="#37415C"/>
<path opacity="0.6" fill-rule="evenodd" clip-rule="evenodd" d="M891 304H991V307H891V304Z" fill="#37415C"/>
<path opacity="0.6" fill-rule="evenodd" clip-rule="evenodd" d="M990 306V146H993V306H990Z" fill="#37415C"/>
<path d="M991 155C996.523 155 1001 150.523 1001 145C1001 139.477 996.523 135 991 135C985.477 135 981 139.477 981 145C981 150.523 985.477 155 991 155Z" fill="#37415C"/>
<path d="M991 315C996.523 315 1001 310.523 1001 305C1001 299.477 996.523 295 991 295C985.477 295 981 299.477 981 305C981 310.523 985.477 315 991 315Z" fill="#37415C"/>
<path d="M1559 1H1201V359H1559V1Z" fill="white" stroke="#37415C" stroke-width="2"/>
<mask id="mask0_1409_2546" style="mask-type:luminance" maskUnits="userSpaceOnUse" x="1344" y="144" width="72" height="72">
<path d="M1416 144H1344V216H1416V144Z" fill="white"/>
</mask>
<g mask="url(#mask0_1409_2546)">
<path d="M1380 201C1382.48 201 1384.5 203.016 1384.5 205.5C1384.5 207.984 1382.48 210 1380 210C1377.52 210 1375.5 207.984 1375.5 205.5C1375.5 203.016 1377.52 201 1380 201ZM1380 150C1389.94 150 1398 158.058 1398 168C1398 174.495 1395.74 177.87 1389.98 182.769C1384.2 187.68 1383 189.891 1383 195H1377C1377 187.578 1379.36 183.915 1386.09 178.197C1390.64 174.33 1392 172.302 1392 168C1392 161.37 1386.63 156 1380 156C1373.37 156 1368 161.37 1368 168V171H1362V168C1362 158.058 1370.06 150 1380 150Z" fill="#37415C"/>
</g>
</g>
<defs>
<clipPath id="clip0_1409_2546">
<rect width="1560" height="360" fill="white"/>
</clipPath>
</defs>
</svg>
