<svg width="217" height="216" viewBox="0 0 217 216" fill="none" xmlns="http://www.w3.org/2000/svg">
<path fill-rule="evenodd" clip-rule="evenodd" d="M35.5 196H61.5V198H35.5V196Z" fill="#37415C"/>
<path fill-rule="evenodd" clip-rule="evenodd" d="M155.5 196H181.5V198H155.5V196Z" fill="#37415C"/>
<path fill-rule="evenodd" clip-rule="evenodd" d="M95.5 196H121.5V198H95.5V196Z" fill="#37415C"/>
<path fill-rule="evenodd" clip-rule="evenodd" d="M19.5 96L19.5 124L17.5 124L17.5 96L19.5 96Z" fill="#37415C"/>
<path d="M36.5 198C36.5 207.941 28.4411 216 18.5 216C8.55887 216 0.5 207.941 0.5 198C0.5 188.059 8.55887 180 18.5 180C28.4411 180 36.5 188.059 36.5 198Z" fill="white"/>
<path fill-rule="evenodd" clip-rule="evenodd" d="M18.5 214C27.3366 214 34.5 206.837 34.5 198C34.5 189.163 27.3366 182 18.5 182C9.66344 182 2.5 189.163 2.5 198C2.5 206.837 9.66344 214 18.5 214ZM18.5 216C28.4411 216 36.5 207.941 36.5 198C36.5 188.059 28.4411 180 18.5 180C8.55887 180 0.5 188.059 0.5 198C0.5 207.941 8.55887 216 18.5 216Z" fill="#37415C"/>
<path d="M96.5 198C96.5 207.941 88.4411 216 78.5 216C68.5589 216 60.5 207.941 60.5 198C60.5 188.059 68.5589 180 78.5 180C88.4411 180 96.5 188.059 96.5 198Z" fill="white"/>
<path fill-rule="evenodd" clip-rule="evenodd" d="M78.5 214C87.3366 214 94.5 206.837 94.5 198C94.5 189.163 87.3366 182 78.5 182C69.6634 182 62.5 189.163 62.5 198C62.5 206.837 69.6634 214 78.5 214ZM78.5 216C88.4411 216 96.5 207.941 96.5 198C96.5 188.059 88.4411 180 78.5 180C68.5589 180 60.5 188.059 60.5 198C60.5 207.941 68.5589 216 78.5 216Z" fill="#37415C"/>
<path d="M156.5 198C156.5 207.941 148.441 216 138.5 216C128.559 216 120.5 207.941 120.5 198C120.5 188.059 128.559 180 138.5 180C148.441 180 156.5 188.059 156.5 198Z" fill="white"/>
<path fill-rule="evenodd" clip-rule="evenodd" d="M138.5 214C147.337 214 154.5 206.837 154.5 198C154.5 189.163 147.337 182 138.5 182C129.663 182 122.5 189.163 122.5 198C122.5 206.837 129.663 214 138.5 214ZM138.5 216C148.441 216 156.5 207.941 156.5 198C156.5 188.059 148.441 180 138.5 180C128.559 180 120.5 188.059 120.5 198C120.5 207.941 128.559 216 138.5 216Z" fill="#37415C"/>
<path d="M36.5 138C36.5 147.941 28.4411 156 18.5 156C8.55887 156 0.5 147.941 0.5 138C0.5 128.059 8.55887 120 18.5 120C28.4411 120 36.5 128.059 36.5 138Z" fill="white"/>
<path fill-rule="evenodd" clip-rule="evenodd" d="M18.5 154C27.3366 154 34.5 146.837 34.5 138C34.5 129.163 27.3366 122 18.5 122C9.66344 122 2.5 129.163 2.5 138C2.5 146.837 9.66344 154 18.5 154ZM18.5 156C28.4411 156 36.5 147.941 36.5 138C36.5 128.059 28.4411 120 18.5 120C8.55887 120 0.5 128.059 0.5 138C0.5 147.941 8.55887 156 18.5 156Z" fill="#37415C"/>
<path d="M36.5 78C36.5 87.9411 28.4411 96 18.5 96C8.55887 96 0.5 87.9411 0.5 78C0.5 68.0589 8.55887 60 18.5 60C28.4411 60 36.5 68.0589 36.5 78Z" fill="white"/>
<path fill-rule="evenodd" clip-rule="evenodd" d="M18.5 94C27.3366 94 34.5 86.8366 34.5 78C34.5 69.1634 27.3366 62 18.5 62C9.66344 62 2.5 69.1634 2.5 78C2.5 86.8366 9.66344 94 18.5 94ZM18.5 96C28.4411 96 36.5 87.9411 36.5 78C36.5 68.0589 28.4411 60 18.5 60C8.55887 60 0.5 68.0589 0.5 78C0.5 87.9411 8.55887 96 18.5 96Z" fill="#37415C"/>
<circle cx="18.5" cy="18" r="18" fill="#37415C"/>
<circle cx="198.5" cy="198" r="18" fill="#37415C"/>
<path fill-rule="evenodd" clip-rule="evenodd" d="M19.5 154L19.5 182L17.5 182L17.5 154L19.5 154Z" fill="#37415C"/>
<path fill-rule="evenodd" clip-rule="evenodd" d="M19.5 33L19.5 61L17.5 61L17.5 33L19.5 33Z" fill="#37415C"/>
</svg>
