<svg width="232" height="141" viewBox="0 0 232 141" fill="none" xmlns="http://www.w3.org/2000/svg">
<path fill-rule="evenodd" clip-rule="evenodd" d="M63.9284 22.6836C63.2143 22.6235 62.4869 22.5676 61.7456 22.5159L61.7109 22.5135H61.676C46.523 22.5135 34.1967 25.9247 24.3139 32.4282C14.4315 38.9314 7.06974 48.4758 1.75987 60.6127C-0.227311 65.1548 0.238757 69.7225 2.43693 74.09C4.61842 78.4243 8.50943 82.5805 13.4286 86.4392C23.1267 94.0468 37.0674 100.688 50.742 105.368C51.1452 109.746 51.2027 113.292 51.2503 116.232C51.2543 116.48 51.2583 116.723 51.2623 116.962C51.3163 120.132 51.389 122.7 52.0343 124.764C52.7118 126.93 54.0042 128.515 56.3279 129.79C58.5832 131.028 61.8339 131.99 66.4649 132.991C75.7455 134.997 87.9235 137.007 98.2404 137.637C103.393 137.951 108.13 137.924 111.827 137.361C113.674 137.08 115.307 136.659 116.617 136.051C117.921 135.446 118.994 134.614 119.571 133.461C120.741 131.12 119.536 128.831 117.909 126.953C116.37 125.178 114.156 123.416 112.101 121.781C111.937 121.65 111.774 121.521 111.612 121.392C109.349 119.588 107.422 117.99 106.506 116.587C106.058 115.902 105.959 115.419 106.022 115.074C106.076 114.781 106.288 114.378 106.972 113.91C122.943 113.849 139.619 109.318 176.694 86.8689L176.697 86.8673C183.099 82.9635 199.345 80.9838 221.153 94.3658L221.394 94.5135H221.676C223.481 94.5135 224.941 94.0325 226.016 93.0507C227.08 92.0784 227.645 90.7264 227.89 89.2211C228.373 86.2561 227.675 82.3222 226.579 78.2535C225.602 74.6247 224.268 70.7523 223.031 67.1611C222.87 66.6912 222.709 66.2261 222.552 65.767C221.175 61.7537 220.024 58.2555 219.665 55.8651C219.504 54.7879 219.618 53.4087 219.979 51.7641C220.338 50.1304 220.926 48.2986 221.66 46.3409C222.816 43.2563 224.305 39.9314 225.775 36.6485C226.176 35.7543 226.575 34.8631 226.966 33.9808C228.77 29.9057 230.411 25.9807 231.046 22.9614C231.36 21.4644 231.463 20.0403 231.101 18.8886C230.914 18.2924 230.596 17.7522 230.111 17.3291C229.626 16.9067 229.027 16.6481 228.35 16.5287C226.219 16.1526 224.7 16.0522 223.276 16.7792C222.586 17.1315 221.976 17.6479 221.35 18.294C220.727 18.9368 220.041 19.7578 219.219 20.7507C219.142 20.8432 219.064 20.9376 218.984 21.0338C215.649 25.0646 209.624 32.3457 195.029 44.7516C181.61 56.157 165.3 58.2369 150.026 56.076C135.945 54.0837 122.831 48.4942 113.893 43.4001C119.029 42.2412 125.785 40.4199 131.814 38.1688C135.348 36.8489 138.669 35.3681 141.273 33.7679C143.828 32.1983 145.897 30.3941 146.619 28.3464C147.447 26.0011 147.243 24.0735 145.922 22.6281C144.703 21.2938 142.693 20.5725 140.445 20.0977C138.16 19.6148 135.397 19.3448 132.48 19.0726C132.317 19.0574 132.153 19.0421 131.989 19.0268C129.195 18.7667 126.249 18.4925 123.334 18.0261C117.241 17.0512 108.739 13.4891 100.465 9.72813C98.4861 8.82857 96.5189 7.91694 94.6053 7.03013C88.6078 4.25082 83.1367 1.71537 79.4774 0.559822C76.9364 -0.242607 74.7972 -0.190035 72.9961 0.766856C71.2278 1.70637 69.9678 3.42399 68.9599 5.55289C67.9494 7.68745 67.1335 10.3641 66.3274 13.3795C65.9576 14.7627 65.5994 16.1783 65.2261 17.6537C64.8225 19.2489 64.4012 20.914 63.9284 22.6836ZM65.9488 22.8684C75.1401 23.7785 82.0855 25.4506 88.3417 28.0445C94.8551 30.7452 100.575 34.4264 107.258 39.1998C108.443 40.0463 109.818 40.9573 111.36 41.9036C116.578 40.8165 124.332 38.8275 131.114 36.2952C134.592 34.9965 137.778 33.5682 140.226 32.0638C142.725 30.5288 144.256 29.0331 144.733 27.6808C145.406 25.776 145.11 24.7036 144.446 23.9772C143.681 23.1397 142.222 22.5172 140.032 22.0545C137.88 21.5999 135.237 21.3386 132.294 21.0639C132.126 21.0483 131.958 21.0326 131.788 21.0168C129.007 20.758 126 20.4782 123.018 20.001C116.612 18.976 107.863 15.2879 99.6375 11.5489C97.5942 10.6201 95.584 9.68868 93.6446 8.79011C87.6884 6.03036 82.4005 3.58025 78.8751 2.46699C76.6662 1.76942 75.1179 1.90434 73.9345 2.53305C72.7185 3.17913 71.6972 4.44521 70.7676 6.4087C69.8407 8.36653 69.0628 10.891 68.2595 13.896C67.9157 15.182 67.5576 16.5957 67.1801 18.0855C66.7919 19.6178 66.3832 21.2307 65.9488 22.8684ZM104.335 113.882C100.604 113.79 96.8348 113.496 92.8146 113.182C89.7604 112.943 86.5612 112.693 83.1235 112.512C74.9133 112.08 63.9878 109.734 52.8108 106.062C53.1517 110.118 53.2056 113.449 53.25 116.195C53.254 116.444 53.258 116.689 53.2621 116.928C53.3174 120.179 53.401 122.433 53.9432 124.167C54.4533 125.798 55.3796 126.988 57.2903 128.037C59.2693 129.123 62.2687 130.037 66.8876 131.036C76.107 133.029 88.179 135.019 98.3621 135.64C103.46 135.951 108.035 135.915 111.526 135.384C113.272 135.118 114.702 134.735 115.775 134.237C116.853 133.737 117.483 133.163 117.782 132.566C118.361 131.407 117.941 130.045 116.397 128.263C114.986 126.635 112.915 124.986 110.813 123.312C110.664 123.194 110.515 123.075 110.365 122.956C108.191 121.222 105.962 119.412 104.831 117.68C104.255 116.798 103.859 115.782 104.055 114.713C104.109 114.42 104.203 114.144 104.335 113.882ZM220.535 22.2968C217.151 26.3855 211.05 33.7584 196.324 46.2754C182.332 58.1683 165.378 60.2679 149.746 58.0563C134.125 55.8462 119.724 49.3222 110.657 43.8176C108.94 42.7752 107.41 41.7666 106.095 40.8272C99.4464 36.0781 93.8749 32.5038 87.5756 29.892C81.2846 27.2836 74.221 25.6167 64.5865 24.7485C63.6307 24.6624 62.6495 24.5841 61.6412 24.5135C46.8106 24.5187 34.8982 27.8572 25.4133 34.0989C15.9207 40.3456 8.78232 49.5512 3.59219 61.4143C1.8847 65.3172 2.2432 69.2564 4.22341 73.1908C6.2203 77.1584 9.86149 81.0992 14.663 84.8656C24.2608 92.3945 38.2417 99.0314 51.9966 103.683C63.5757 107.598 74.9082 110.077 83.2286 110.515C86.7915 110.702 90.0341 110.957 93.0969 111.197C97.8832 111.572 102.231 111.913 106.676 111.911C122.191 111.905 138.462 107.68 175.656 85.1594C182.894 80.7467 199.88 79.0562 221.95 92.5088C223.241 92.4638 224.092 92.0989 224.667 91.5739C225.292 91.0033 225.716 90.1287 225.916 88.8996C226.324 86.3958 225.74 82.8298 224.648 78.7734C223.69 75.216 222.381 71.4134 221.141 67.8135C220.979 67.3439 220.819 66.8778 220.66 66.4161C219.303 62.4606 218.079 58.7713 217.687 56.1617C217.474 54.7389 217.641 53.0868 218.026 51.335C218.413 49.5722 219.036 47.6423 219.787 45.6391C220.967 42.4898 222.491 39.0876 223.965 35.7972C224.362 34.9113 224.755 34.0336 225.137 33.1711C226.958 29.0587 228.504 25.3275 229.088 22.5499C229.383 21.1485 229.397 20.139 229.193 19.4881C229.097 19.1829 228.96 18.9794 228.797 18.8373C228.633 18.6946 228.388 18.5664 228.002 18.4983C225.884 18.1244 224.965 18.1623 224.186 18.5604C223.774 18.7706 223.341 19.1135 222.786 19.6862C222.227 20.2621 221.593 21.0192 220.759 22.0263L220.535 22.2968Z" fill="#37415C"/>
<path fill-rule="evenodd" clip-rule="evenodd" d="M31.6763 62.0137C37.0077 62.0137 41.1763 57.9014 41.1763 53.0137C41.1763 48.126 37.0077 44.0137 31.6763 44.0137C26.3448 44.0137 22.1763 48.126 22.1763 53.0137C22.1763 57.9014 26.3448 62.0137 31.6763 62.0137ZM31.6763 64.0137C38.0275 64.0137 43.1763 59.0888 43.1763 53.0137C43.1763 46.9385 38.0275 42.0137 31.6763 42.0137C25.325 42.0137 20.1763 46.9385 20.1763 53.0137C20.1763 59.0888 25.325 64.0137 31.6763 64.0137Z" fill="#37415C"/>
<path d="M36.1763 53.0137C36.1763 55.2228 34.1616 57.0137 31.6763 57.0137C29.191 57.0137 27.1763 55.2228 27.1763 53.0137C27.1763 50.8045 29.191 49.0137 31.6763 49.0137C34.1616 49.0137 36.1763 50.8045 36.1763 53.0137Z" fill="#37415C"/>
<path d="M85.1763 4.51374C70.6763 -0.986268 72.6763 0.513642 64.6763 23.5137C84.6763 23.5137 104.343 36.5137 111.676 43.0137C120.01 41.0137 137.5 35.6875 142.176 32.0137C149.176 26.5137 145.676 19.5137 130.676 20.0137C115.676 20.5137 99.6763 10.0137 85.1763 4.51374Z" fill="#37415C"/>
<path d="M190.176 50.0137L194.176 47.5137V83.0137H190.176V50.0137Z" fill="#37415C"/>
<path d="M201.176 41.3235L205.176 38.0137V85.0137H201.176V41.3235Z" fill="#37415C"/>
<path d="M211.176 32.3094L215.176 28.0137V89.0137H211.176V32.3094Z" fill="#37415C"/>
<path d="M223.176 18.4604L227.176 18.0137V30.1677L223.176 38.0137V18.4604Z" fill="#37415C"/>
</svg>
