<svg width="232" height="141" viewBox="0 0 232 141" fill="none" xmlns="http://www.w3.org/2000/svg">
<path fill-rule="evenodd" clip-rule="evenodd" d="M168.072 22.6836C168.786 22.6235 169.513 22.5676 170.254 22.5159L170.289 22.5135H170.324C185.477 22.5135 197.803 25.9247 207.686 32.4282C217.569 38.9314 224.93 48.4758 230.24 60.6127C232.227 65.1548 231.761 69.7225 229.563 74.09C227.382 78.4243 223.491 82.5805 218.571 86.4392C208.873 94.0468 194.933 100.688 181.258 105.368C180.855 109.746 180.797 113.292 180.75 116.232C180.746 116.48 180.742 116.723 180.738 116.962C180.684 120.132 180.611 122.7 179.966 124.764C179.288 126.93 177.996 128.515 175.672 129.79C173.417 131.028 170.166 131.99 165.535 132.991C156.255 134.997 144.076 137.007 133.76 137.637C128.607 137.951 123.87 137.924 120.173 137.361C118.326 137.08 116.693 136.659 115.383 136.051C114.079 135.446 113.006 134.614 112.429 133.461C111.259 131.12 112.464 128.831 114.091 126.953C115.63 125.178 117.844 123.416 119.899 121.781C120.063 121.65 120.226 121.521 120.388 121.392C122.651 119.588 124.578 117.99 125.494 116.587C125.942 115.902 126.041 115.419 125.978 115.074C125.924 114.781 125.712 114.378 125.028 113.91C109.057 113.849 92.3808 109.318 55.3058 86.8689L55.3031 86.8673C48.9009 82.9635 32.6545 80.9838 10.8467 94.3658L10.6061 94.5135H10.3237C8.51935 94.5135 7.0593 94.0325 5.98431 93.0507C4.91972 92.0784 4.35532 90.7264 4.11017 89.2211C3.6273 86.2561 4.3252 82.3222 5.42061 78.2535C6.3976 74.6247 7.73152 70.7523 8.96855 67.1611C9.13043 66.6912 9.29065 66.2261 9.44818 65.767C10.8253 61.7537 11.9762 58.2555 12.3348 55.8651C12.4964 54.7879 12.3821 53.4087 12.0208 51.7641C11.662 50.1304 11.0741 48.2986 10.3405 46.3409C9.18449 43.2563 7.69518 39.9314 6.2247 36.6485C5.82414 35.7543 5.42499 34.8631 5.03435 33.9808C3.2301 29.9057 1.58928 25.9807 0.954498 22.9614C0.639771 21.4644 0.53714 20.0403 0.899002 18.8886C1.08633 18.2924 1.40358 17.7522 1.88937 17.3291C2.37444 16.9067 2.97322 16.6481 3.64995 16.5287C5.7811 16.1526 7.30028 16.0522 8.72382 16.7792C9.41374 17.1315 10.0237 17.6479 10.6501 18.294C11.2733 18.9368 11.9592 19.7578 12.7814 20.7507C12.858 20.8432 12.9361 20.9376 13.0157 21.0338C16.3512 25.0646 22.3762 32.3457 36.9714 44.7516C50.3896 56.157 66.7004 58.2369 81.9737 56.076C96.055 54.0837 109.169 48.4942 118.107 43.4001C112.971 42.2412 106.215 40.4199 100.186 38.1688C96.6517 36.8489 93.3314 35.3681 90.7268 33.7679C88.1721 32.1983 86.1035 30.3941 85.3807 28.3464C84.553 26.0011 84.757 24.0735 86.0777 22.6281C87.2968 21.2938 89.3073 20.5725 91.5545 20.0977C93.8402 19.6148 96.6034 19.3448 99.5199 19.0726C99.683 19.0574 99.8468 19.0421 100.011 19.0268C102.805 18.7667 105.751 18.4925 108.666 18.0261C114.759 17.0512 123.261 13.4891 131.535 9.72813C133.514 8.82857 135.481 7.91694 137.395 7.03013C143.392 4.25082 148.863 1.71537 152.523 0.559822C155.064 -0.242607 157.203 -0.190035 159.004 0.766856C160.772 1.70637 162.032 3.42399 163.04 5.55289C164.051 7.68745 164.867 10.3641 165.673 13.3795C166.042 14.7627 166.401 16.1783 166.774 17.6537C167.178 19.2489 167.599 20.914 168.072 22.6836ZM166.051 22.8684C156.86 23.7785 149.914 25.4506 143.658 28.0445C137.145 30.7452 131.425 34.4264 124.742 39.1998C123.557 40.0463 122.182 40.9573 120.64 41.9036C115.422 40.8165 107.668 38.8275 100.886 36.2952C97.4083 34.9965 94.2223 33.5682 91.7738 32.0638C89.2753 30.5288 87.744 29.0331 87.2667 27.6808C86.5945 25.776 86.8904 24.7036 87.5542 23.9772C88.3194 23.1397 89.7777 22.5172 91.9679 22.0545C94.1198 21.5999 96.7628 21.3386 99.7057 21.0639C99.8735 21.0483 100.042 21.0326 100.212 21.0168C102.993 20.758 106 20.4782 108.982 20.001C115.388 18.976 124.137 15.2879 132.363 11.5489C134.406 10.6201 136.416 9.68868 138.355 8.79011C144.312 6.03036 149.6 3.58025 153.125 2.46699C155.334 1.76942 156.882 1.90434 158.065 2.53305C159.282 3.17913 160.303 4.44521 161.232 6.4087C162.159 8.36653 162.937 10.891 163.74 13.896C164.084 15.182 164.442 16.5957 164.82 18.0855C165.208 19.6178 165.617 21.2307 166.051 22.8684ZM127.665 113.882C131.396 113.79 135.165 113.496 139.185 113.182C142.24 112.943 145.439 112.693 148.877 112.512C157.087 112.08 168.012 109.734 179.189 106.062C178.848 110.118 178.794 113.449 178.75 116.195C178.746 116.444 178.742 116.689 178.738 116.928C178.683 120.179 178.599 122.433 178.057 124.167C177.547 125.798 176.62 126.988 174.71 128.037C172.731 129.123 169.731 130.037 165.112 131.036C155.893 133.029 143.821 135.019 133.638 135.64C128.54 135.951 123.965 135.915 120.474 135.384C118.728 135.118 117.298 134.735 116.225 134.237C115.147 133.737 114.517 133.163 114.218 132.566C113.639 131.407 114.059 130.045 115.603 128.263C117.014 126.635 119.085 124.986 121.187 123.312C121.336 123.194 121.485 123.075 121.635 122.956C123.809 121.222 126.038 119.412 127.169 117.68C127.745 116.798 128.141 115.782 127.945 114.713C127.891 114.42 127.797 114.144 127.665 113.882ZM11.4649 22.2968C14.8486 26.3855 20.9502 33.7584 35.6761 46.2754C49.6677 58.1683 66.622 60.2679 82.2539 58.0563C97.8748 55.8462 112.276 49.3222 121.343 43.8176C123.06 42.7752 124.59 41.7666 125.905 40.8272C132.554 36.0781 138.125 32.5038 144.424 29.892C150.715 27.2836 157.779 25.6167 167.413 24.7485C168.369 24.6624 169.351 24.5841 170.359 24.5135C185.189 24.5187 197.102 27.8572 206.587 34.0989C216.079 40.3456 223.218 49.5512 228.408 61.4143C230.115 65.3172 229.757 69.2564 227.777 73.1908C225.78 77.1584 222.139 81.0992 217.337 84.8656C207.739 92.3945 193.758 99.0314 180.003 103.683C168.424 107.598 157.092 110.077 148.771 110.515C145.208 110.702 141.966 110.957 138.903 111.197C134.117 111.572 129.769 111.913 125.324 111.911C109.809 111.905 93.538 107.68 56.3438 85.1594C49.1063 80.7467 32.1203 79.0562 10.0499 92.5088C8.75916 92.4638 7.90782 92.0989 7.33307 91.5739C6.70821 91.0033 6.28433 90.1287 6.08417 88.8996C5.67641 86.3958 6.25977 82.8298 7.35185 78.7734C8.3096 75.216 9.61931 71.4134 10.8592 67.8135C11.021 67.3439 11.1815 66.8778 11.3399 66.4161C12.6972 62.4606 13.9212 58.7713 14.3127 56.1617C14.5261 54.7389 14.3591 53.0868 13.9743 51.335C13.5871 49.5722 12.964 47.6423 12.2133 45.6391C11.0331 42.4898 9.50897 39.0876 8.035 35.7972C7.63818 34.9113 7.24498 34.0336 6.86311 33.1711C5.04236 29.0587 3.49568 25.3275 2.91171 22.5499C2.61707 21.1485 2.60251 20.139 2.80705 19.4881C2.90292 19.1829 3.03978 18.9794 3.20291 18.8373C3.36678 18.6946 3.61174 18.5664 3.99751 18.4983C6.11636 18.1244 7.03468 18.1623 7.81427 18.5604C8.22591 18.7706 8.65892 19.1135 9.21417 19.6862C9.7726 20.2621 10.407 21.0192 11.241 22.0263L11.4649 22.2968Z" fill="#37415C"/>
<path fill-rule="evenodd" clip-rule="evenodd" d="M200.324 62.0137C194.992 62.0137 190.824 57.9014 190.824 53.0137C190.824 48.126 194.992 44.0137 200.324 44.0137C205.655 44.0137 209.824 48.126 209.824 53.0137C209.824 57.9014 205.655 62.0137 200.324 62.0137ZM200.324 64.0137C193.972 64.0137 188.824 59.0888 188.824 53.0137C188.824 46.9385 193.972 42.0137 200.324 42.0137C206.675 42.0137 211.824 46.9385 211.824 53.0137C211.824 59.0888 206.675 64.0137 200.324 64.0137Z" fill="#37415C"/>
<path d="M195.824 53.0137C195.824 55.2228 197.838 57.0137 200.324 57.0137C202.809 57.0137 204.824 55.2228 204.824 53.0137C204.824 50.8045 202.809 49.0137 200.324 49.0137C197.838 49.0137 195.824 50.8045 195.824 53.0137Z" fill="#37415C"/>
<path d="M146.824 4.51374C161.324 -0.986268 159.324 0.513642 167.324 23.5137C147.324 23.5137 127.657 36.5137 120.324 43.0137C111.99 41.0137 94.4995 35.6875 89.8237 32.0137C82.8237 26.5137 86.3237 19.5137 101.324 20.0137C116.324 20.5137 132.324 10.0137 146.824 4.51374Z" fill="#37415C"/>
<path d="M41.8237 50.0137L37.8237 47.5137V83.0137H41.8237V50.0137Z" fill="#37415C"/>
<path d="M30.8237 41.3235L26.8237 38.0137V85.0137H30.8237V41.3235Z" fill="#37415C"/>
<path d="M20.8237 32.3094L16.8237 28.0137V89.0137H20.8237V32.3094Z" fill="#37415C"/>
<path d="M8.82373 18.4604L4.82373 18.0137V30.1677L8.82373 38.0137V18.4604Z" fill="#37415C"/>
</svg>
