<svg width="552" height="120" viewBox="0 0 552 120" fill="none" xmlns="http://www.w3.org/2000/svg">
<path fill-rule="evenodd" clip-rule="evenodd" d="M97.6906 63.9999L78.8453 31.3589L41.1547 31.3589L22.3094 63.9999L41.1547 96.6409L78.8453 96.6409L97.6906 63.9999ZM80 98.6409L100 63.9999L80 29.3589L40 29.3589L20 63.9999L40 98.6409L80 98.6409Z" fill="#37415C"/>
<path fill-rule="evenodd" clip-rule="evenodd" d="M88.5 16L31.5 16L31.5 14L88.5 14L88.5 16Z" fill="#37415C"/>
<path fill-rule="evenodd" clip-rule="evenodd" d="M245.154 63.9999L224.577 99.6409L184 99.6409L184 97.6409L223.422 97.6409L242.845 63.9999L223.422 30.3589L184.577 30.3589L164.866 64.4999L163.134 63.4999L183.422 28.3589L224.577 28.3589L245.154 63.9999Z" fill="#37415C"/>
<path fill-rule="evenodd" clip-rule="evenodd" d="M231.926 16L260.136 64.5028L261.865 63.4972L233.076 14L175.501 14L175.501 16L231.926 16Z" fill="#37415C"/>
<path fill-rule="evenodd" clip-rule="evenodd" d="M389.154 63.9999L369 98.9082L367.422 97.6409L386.845 63.9999L367.422 30.3589L328.577 30.3589L308.866 64.4999L307.134 63.4999L327.422 28.3589L368.577 28.3589L389.154 63.9999Z" fill="#37415C"/>
<path fill-rule="evenodd" clip-rule="evenodd" d="M406.156 64L377.364 113.503L375.635 112.497L403.843 64L375.924 16L319.499 16L319.499 14L377.075 14L406.156 64Z" fill="#37415C"/>
<g clip-path="url(#clip0_1468_183)">
<path d="M492 69.3332C493.104 69.3332 494 70.2292 494 71.3332C494 72.4372 493.104 73.3332 492 73.3332C490.896 73.3332 490 72.4372 490 71.3332C490 70.2292 490.896 69.3332 492 69.3332ZM492 46.6665C496.419 46.6665 500 50.2478 500 54.6665C500 57.5532 498.996 59.0532 496.435 61.2305C493.865 63.4132 493.333 64.3958 493.333 66.6665H490.667C490.667 63.3678 491.716 61.7398 494.708 59.1985C496.731 57.4798 497.333 56.5785 497.333 54.6665C497.333 51.7198 494.947 49.3332 492 49.3332C489.053 49.3332 486.667 51.7198 486.667 54.6665V55.9998H484V54.6665C484 50.2478 487.581 46.6665 492 46.6665Z" fill="#37415C"/>
</g>
<defs>
<clipPath id="clip0_1468_183">
<rect width="32" height="32" fill="white" transform="translate(476 44)"/>
</clipPath>
</defs>
</svg>
