<svg width="121" height="120" viewBox="0 0 121 120" fill="none" xmlns="http://www.w3.org/2000/svg">
<rect x="1.5" y="1" width="118" height="118" rx="3" fill="white"/>
<rect x="1.5" y="1" width="118" height="118" rx="3" stroke="#37415C" stroke-width="2"/>
<path d="M59.9989 71.2386C58.9308 71.2386 57.9705 71.0341 57.1183 70.625C56.2717 70.2102 55.5955 69.642 55.0898 68.9205C54.5842 68.1989 54.3143 67.375 54.2802 66.4489H56.837C56.8995 67.1989 57.2319 67.8153 57.8342 68.2983C58.4364 68.7812 59.158 69.0227 59.9989 69.0227C60.6694 69.0227 61.2631 68.8693 61.7802 68.5625C62.3029 68.25 62.712 67.821 63.0075 67.2756C63.3086 66.7301 63.4592 66.108 63.4592 65.4091C63.4592 64.6989 63.3058 64.0653 62.9989 63.5085C62.6921 62.9517 62.2688 62.5142 61.729 62.196C61.195 61.8778 60.5813 61.7159 59.8881 61.7102C59.3597 61.7102 58.8285 61.8011 58.2944 61.983C57.7603 62.1648 57.3285 62.4034 56.9989 62.6989L54.587 62.3409L55.5671 53.5455H65.1637V55.804H57.7575L57.2035 60.6875H57.3058C57.6467 60.358 58.0984 60.0824 58.6609 59.8608C59.229 59.6392 59.837 59.5284 60.4847 59.5284C61.5472 59.5284 62.4933 59.7812 63.3228 60.2869C64.158 60.7926 64.8143 61.483 65.2915 62.358C65.7745 63.2273 66.0131 64.2273 66.0075 65.358C66.0131 66.4886 65.7575 67.4972 65.2404 68.3835C64.729 69.2699 64.0188 69.9687 63.1097 70.4801C62.2063 70.9858 61.1694 71.2386 59.9989 71.2386Z" fill="#37415C"/>
</svg>
