<svg width="121" height="120" viewBox="0 0 121 120" fill="none" xmlns="http://www.w3.org/2000/svg">
<rect x="1.5" y="1" width="118" height="118" rx="3" fill="white"/>
<rect x="1.5" y="1" width="118" height="118" rx="3" stroke="#37415C" stroke-width="2"/>
<path d="M59.354 53.3068C60.1325 53.3125 60.8995 53.4545 61.6552 53.733C62.4109 54.0114 63.0927 54.4659 63.7006 55.0966C64.3143 55.7273 64.8029 56.5795 65.1665 57.6534C65.5359 58.7216 65.7234 60.0511 65.729 61.642C65.729 63.1705 65.5756 64.5312 65.2688 65.7244C64.962 66.9119 64.5217 67.9148 63.9478 68.733C63.3796 69.5511 62.6893 70.1733 61.8768 70.5994C61.0643 71.0256 60.1495 71.2386 59.1325 71.2386C58.0927 71.2386 57.1694 71.0341 56.3626 70.625C55.5558 70.2159 54.8995 69.6506 54.3938 68.929C53.8881 68.2017 53.5728 67.3665 53.4478 66.4233H56.0472C56.2177 67.1733 56.5643 67.7812 57.087 68.2472C57.6154 68.7074 58.2972 68.9375 59.1325 68.9375C60.4109 68.9375 61.408 68.3807 62.1239 67.267C62.8398 66.1477 63.2006 64.5852 63.2063 62.5795H63.07C62.7745 63.0682 62.4052 63.4886 61.962 63.8409C61.5245 64.1932 61.033 64.4659 60.4876 64.6591C59.9421 64.8523 59.3597 64.9489 58.7404 64.9489C57.7347 64.9489 56.82 64.7017 55.9961 64.2074C55.1722 63.7131 54.516 63.0341 54.0273 62.1705C53.5387 61.3068 53.2944 60.321 53.2944 59.2131C53.2944 58.1108 53.5444 57.1108 54.0444 56.2131C54.5501 55.3153 55.2546 54.6051 56.158 54.0824C57.0671 53.554 58.1325 53.2955 59.354 53.3068ZM59.3626 55.5227C58.6978 55.5227 58.0984 55.6875 57.5643 56.017C57.0359 56.3409 56.6183 56.7812 56.3114 57.3381C56.0046 57.8892 55.8512 58.5028 55.8512 59.179C55.8512 59.8551 55.9989 60.4687 56.2944 61.0199C56.5955 61.5653 57.0046 62 57.5217 62.3239C58.0444 62.642 58.641 62.8011 59.3114 62.8011C59.8114 62.8011 60.2773 62.7045 60.7092 62.5114C61.141 62.3182 61.5188 62.0511 61.8427 61.7102C62.1665 61.3636 62.4194 60.9716 62.6012 60.5341C62.783 60.0966 62.8739 59.6364 62.8739 59.1534C62.8739 58.5114 62.7205 57.9148 62.4137 57.3636C62.1126 56.8125 61.6978 56.3693 61.1694 56.0341C60.641 55.6932 60.0387 55.5227 59.3626 55.5227Z" fill="#37415C"/>
</svg>
