<svg width="520" height="324" viewBox="0 0 520 324" fill="none" xmlns="http://www.w3.org/2000/svg">
<rect x="84" y="1" width="353" height="322" rx="5" fill="white"/>
<rect x="84" y="1" width="353" height="322" rx="5" stroke="#D3D6DF" stroke-width="2"/>
<path d="M339.5 162C339.5 210.479 304.208 249.5 261 249.5C217.792 249.5 182.5 210.479 182.5 162C182.5 113.521 217.792 74.5 261 74.5C304.208 74.5 339.5 113.521 339.5 162Z" stroke="#1855BA" stroke-width="3"/>
<path d="M371.5 162C371.5 229.802 321.887 284.5 261 284.5C200.113 284.5 150.5 229.802 150.5 162C150.5 94.1978 200.113 39.5 261 39.5C321.887 39.5 371.5 94.1978 371.5 162Z" stroke="#1855BA" stroke-width="3"/>
<path d="M403.5 162C403.5 249.69 339.556 320.5 261 320.5C182.444 320.5 118.5 249.69 118.5 162C118.5 74.3103 182.444 3.5 261 3.5C339.556 3.5 403.5 74.3103 403.5 162Z" stroke="#1855BA" stroke-width="3"/>
<line x1="261.5" y1="2" x2="261.5" y2="322" stroke="#1855BA" stroke-width="3"/>
<line x1="85" y1="114.5" x2="436" y2="114.5" stroke="#1855BA" stroke-width="3"/>
<line x1="85" y1="206.5" x2="436" y2="206.5" stroke="#1855BA" stroke-width="3"/>
<rect x="219" y="56" width="84" height="84" fill="white"/>
<rect x="219" y="56" width="84" height="84" stroke="#979FB4" stroke-width="4"/>
<g clip-path="url(#clip0_1418_3696)">
<path d="M261 112C262.656 112 264 113.344 264 115C264 116.656 262.656 118 261 118C259.344 118 258 116.656 258 115C258 113.344 259.344 112 261 112ZM261 78C267.628 78 273 83.372 273 90C273 94.33 271.494 96.58 267.652 99.846C263.798 103.12 263 104.594 263 108H259C259 103.052 260.574 100.61 265.062 96.798C268.096 94.22 269 92.868 269 90C269 85.58 265.42 82 261 82C256.58 82 253 85.58 253 90V92H249V90C249 83.372 254.372 78 261 78Z" fill="#979FB4"/>
</g>
<defs>
<clipPath id="clip0_1418_3696">
<rect width="48" height="48" fill="white" transform="translate(237 74)"/>
</clipPath>
</defs>
</svg>
