<svg width="124" height="124" viewBox="0 0 124 124" fill="none" xmlns="http://www.w3.org/2000/svg">
<g opacity="0.6">
<g clip-path="url(#clip0_1457_171)">
<path d="M-2284 -409C-2284 -410.658 -2282.65 -412 -2281 -412H1289C1290.66 -412 1292 -410.658 1292 -409V1421C1292 1422.66 1290.66 1424 1289 1424H-2281C-2282.65 1424 -2284 1422.66 -2284 1421V-409Z" fill="#F0F0F0"/>
<path d="M-2281 -410.5H1289V-413.5H-2281V-410.5ZM1290.5 -409V1421H1293.5V-409H1290.5ZM1289 1422.5H-2281V1425.5H1289V1422.5ZM-2282.5 1421V-409H-2285.5V1421H-2282.5ZM-2281 1422.5C-2281.83 1422.5 -2282.5 1421.83 -2282.5 1421H-2285.5C-2285.5 1423.49 -2283.49 1425.5 -2281 1425.5V1422.5ZM1290.5 1421C1290.5 1421.83 1289.83 1422.5 1289 1422.5V1425.5C1291.49 1425.5 1293.5 1423.49 1293.5 1421H1290.5ZM1289 -410.5C1289.83 -410.5 1290.5 -409.828 1290.5 -409H1293.5C1293.5 -411.485 1291.49 -413.5 1289 -413.5V-410.5ZM-2281 -413.5C-2283.49 -413.5 -2285.5 -411.485 -2285.5 -409H-2282.5C-2282.5 -409.828 -2281.83 -410.5 -2281 -410.5V-413.5Z" fill="black" fill-opacity="0.1"/>
<path d="M1142 -262H-1018V1274H1142V-262Z" fill="white"/>
<path d="M318.5 -71.5H-196C-200.142 -71.5 -203.5 -68.1421 -203.5 -64V404C-203.5 408.142 -200.142 411.5 -196 411.5H318.5C322.642 411.5 326 408.142 326 404V-64C326 -68.1421 322.642 -71.5 318.5 -71.5Z" stroke="#D3D6DF" stroke-width="2"/>
<path d="M179.75 170C179.75 242.719 126.812 301.25 62 301.25C-2.81191 301.25 -55.75 242.719 -55.75 170C-55.75 97.281 -2.81191 38.75 62 38.75C126.812 38.75 179.75 97.281 179.75 170Z" stroke="#1855BA" stroke-width="3"/>
<path d="M227.75 170C227.75 271.703 153.331 353.75 62 353.75C-29.3313 353.75 -103.75 271.703 -103.75 170C-103.75 68.2967 -29.3313 -13.75 62 -13.75C153.331 -13.75 227.75 68.2967 227.75 170Z" stroke="#1855BA" stroke-width="3"/>
<path d="M275.75 170C275.75 301.535 179.834 407.75 62 407.75C-55.8337 407.75 -151.75 301.535 -151.75 170C-151.75 38.4655 -55.8337 -67.75 62 -67.75C179.834 -67.75 275.75 38.4655 275.75 170Z" stroke="#1855BA" stroke-width="3"/>
<path d="M62.75 -70V410" stroke="#1855BA" stroke-width="3"/>
</g>
<rect x="1" y="1" width="122" height="122" rx="5" stroke="#D3D6DF" stroke-width="2"/>
</g>
<defs>
<clipPath id="clip0_1457_171">
<rect x="2" y="2" width="120" height="120" rx="4" fill="white"/>
</clipPath>
</defs>
</svg>
