<svg width="124" height="124" viewBox="0 0 124 124" fill="none" xmlns="http://www.w3.org/2000/svg">
<g clip-path="url(#clip0_1457_194)">
<path d="M-2284 -443.5C-2284 -445.158 -2282.65 -446.5 -2281 -446.5H1289C1290.66 -446.5 1292 -445.158 1292 -443.5V1386.5C1292 1388.16 1290.66 1389.5 1289 1389.5H-2281C-2282.65 1389.5 -2284 1388.16 -2284 1386.5V-443.5Z" fill="#F0F0F0"/>
<path d="M-2281 -445H1289V-448H-2281V-445ZM1290.5 -443.5V1386.5H1293.5V-443.5H1290.5ZM1289 1388H-2281V1391H1289V1388ZM-2282.5 1386.5V-443.5H-2285.5V1386.5H-2282.5ZM-2281 1388C-2281.83 1388 -2282.5 1387.33 -2282.5 1386.5H-2285.5C-2285.5 1388.99 -2283.49 1391 -2281 1391V1388ZM1290.5 1386.5C1290.5 1387.33 1289.83 1388 1289 1388V1391C1291.49 1391 1293.5 1388.99 1293.5 1386.5H1290.5ZM1289 -445C1289.83 -445 1290.5 -444.328 1290.5 -443.5H1293.5C1293.5 -445.985 1291.49 -448 1289 -448V-445ZM-2281 -448C-2283.49 -448 -2285.5 -445.985 -2285.5 -443.5H-2282.5C-2282.5 -444.328 -2281.83 -445 -2281 -445V-448Z" fill="black" fill-opacity="0.1"/>
<path d="M1142 -296.5H-1018V1239.5H1142V-296.5Z" fill="white"/>
<path d="M318.5 -106H-196C-200.142 -106 -203.5 -102.642 -203.5 -98.5V369.5C-203.5 373.642 -200.142 377 -196 377H318.5C322.642 377 326 373.642 326 369.5V-98.5C326 -102.642 322.642 -106 318.5 -106Z" stroke="#D3D6DF" stroke-width="2"/>
<path d="M179.75 135.5C179.75 208.219 126.812 266.75 62 266.75C-2.81191 266.75 -55.75 208.219 -55.75 135.5C-55.75 62.781 -2.81191 4.25 62 4.25C126.812 4.25 179.75 62.781 179.75 135.5Z" stroke="#1855BA" stroke-width="3"/>
<path d="M227.75 135.5C227.75 237.203 153.331 319.25 62 319.25C-29.3313 319.25 -103.75 237.203 -103.75 135.5C-103.75 33.7967 -29.3313 -48.25 62 -48.25C153.331 -48.25 227.75 33.7967 227.75 135.5Z" stroke="#1855BA" stroke-width="3"/>
<path d="M275.75 135.5C275.75 267.035 179.834 373.25 62 373.25C-55.8337 373.25 -151.75 267.035 -151.75 135.5C-151.75 3.96545 -55.8337 -102.25 62 -102.25C179.834 -102.25 275.75 3.96545 275.75 135.5Z" stroke="#1855BA" stroke-width="3"/>
<path d="M62.75 -104.5V375.5" stroke="#1855BA" stroke-width="3"/>
<path d="M-202 64.25H324.5" stroke="#1855BA" stroke-width="3"/>
<path d="M-204 77H322.5" stroke="#1855BA" stroke-width="3"/>
</g>
<rect x="1" y="1" width="122" height="122" rx="5" stroke="#D3D6DF" stroke-width="2"/>
<defs>
<clipPath id="clip0_1457_194">
<rect x="2" y="2" width="120" height="120" rx="4" fill="white"/>
</clipPath>
</defs>
</svg>
