<svg width="121" height="120" viewBox="0 0 121 120" fill="none" xmlns="http://www.w3.org/2000/svg">
<rect x="1.5" y="1" width="118" height="118" stroke="#37415C" stroke-width="2"/>
<path fill-rule="evenodd" clip-rule="evenodd" d="M60.5 72C67.1274 72 72.5 66.6274 72.5 60C72.5 53.3726 67.1274 48 60.5 48C53.8726 48 48.5 53.3726 48.5 60C48.5 66.6274 53.8726 72 60.5 72ZM60.5 74C68.232 74 74.5 67.732 74.5 60C74.5 52.268 68.232 46 60.5 46C52.768 46 46.5 52.268 46.5 60C46.5 67.732 52.768 74 60.5 74Z" fill="#37415C"/>
<path fill-rule="evenodd" clip-rule="evenodd" d="M60.5 111.855L27.3127 60.0001L60.5 8.14502L93.6873 60.0001L60.5 111.855ZM91.3127 60.0001L60.5 11.8552L29.6873 60.0001L60.5 108.145L91.3127 60.0001Z" fill="#37415C"/>
</svg>
