<svg width="121" height="120" viewBox="0 0 121 120" fill="none" xmlns="http://www.w3.org/2000/svg">
<rect x="1.5" y="1" width="118" height="118" stroke="#37415C" stroke-width="2"/>
<path fill-rule="evenodd" clip-rule="evenodd" d="M60.5 70C65.6673 70 70 65.6039 70 60C70 54.3961 65.6673 50 60.5 50C55.3327 50 51 54.3961 51 60C51 65.6039 55.3327 70 60.5 70ZM60.5 72C66.8513 72 72 66.6274 72 60C72 53.3726 66.8513 48 60.5 48C54.1487 48 49 53.3726 49 60C49 66.6274 54.1487 72 60.5 72Z" fill="#37415C"/>
<path fill-rule="evenodd" clip-rule="evenodd" d="M60.5001 104.365L32.3153 59.9999L60.5001 15.635L88.6848 59.9999L60.5001 104.365ZM86.3153 59.9999L60.5001 19.3647L34.6848 59.9999L60.5001 100.635L86.3153 59.9999Z" fill="#37415C"/>
<path fill-rule="evenodd" clip-rule="evenodd" d="M60 106C85.4051 106 106 85.4051 106 60C106 34.5949 85.4051 14 60 14C34.5949 14 14 34.5949 14 60C14 85.4051 34.5949 106 60 106ZM60 108C86.5097 108 108 86.5097 108 60C108 33.4903 86.5097 12 60 12C33.4903 12 12 33.4903 12 60C12 86.5097 33.4903 108 60 108Z" fill="#37415C"/>
</svg>
