<svg width="140" height="140" viewBox="0 0 140 140" fill="none" xmlns="http://www.w3.org/2000/svg">
<path fill-rule="evenodd" clip-rule="evenodd" d="M71.8073 7.16806C72.2668 7.47441 72.391 8.09528 72.0846 8.55481C71.8542 8.90049 71.5722 9.19412 71.3546 9.42068C71.3489 9.42668 71.3431 9.43264 71.3375 9.43855C71.0969 9.68914 70.9234 9.87245 70.7874 10.0705C70.1115 11.0554 69.5436 11.9346 69.0304 12.9611C67.7796 15.4626 67.6514 18.5028 68.7348 21.0688C68.8991 21.458 69.1066 21.823 69.3485 22.2486C69.3639 22.2757 69.3795 22.303 69.3952 22.3306C69.6465 22.7732 69.931 23.2814 70.1461 23.8508C70.5409 24.8958 70.6405 25.8294 70.6405 26.8551C70.6405 27.0618 70.6477 27.256 70.6555 27.4702C70.6603 27.599 70.6653 27.7351 70.6692 27.8854C70.6787 28.2549 70.6789 28.6697 70.6268 29.0867C70.5464 29.7302 70.3327 30.3254 70.1617 30.8017C70.1384 30.8665 70.1159 30.929 70.0947 30.9892C69.9034 31.5315 69.7808 31.9522 69.7808 32.3958C69.7808 32.9481 69.333 33.3958 68.7808 33.3958C68.2285 33.3958 67.7808 32.9481 67.7808 32.3958C67.7808 31.5848 68.0103 30.886 68.2086 30.3239C68.2331 30.2546 68.2569 30.1876 68.28 30.1228C68.4571 29.6249 68.591 29.2484 68.6423 28.8387C68.6754 28.5733 68.6787 28.2785 68.6698 27.937C68.6672 27.8337 68.663 27.719 68.6587 27.5989C68.65 27.3574 68.6405 27.0938 68.6405 26.8551C68.6405 25.98 68.5575 25.305 68.2752 24.5576C68.1215 24.1507 67.9098 23.7652 67.6561 23.3183C67.6371 23.285 67.6179 23.2513 67.5985 23.2171C67.3681 22.8123 67.1045 22.3493 66.8923 21.8467C65.5747 18.7261 65.7372 15.0752 67.2415 12.0666C67.8163 10.917 68.4453 9.94886 69.1384 8.93884C69.374 8.59549 69.6537 8.30433 69.8702 8.07901C69.8784 8.07041 69.8866 8.06191 69.8947 8.05351C70.135 7.80314 70.2987 7.6281 70.4205 7.44541C70.7269 6.98588 71.3477 6.8617 71.8073 7.16806Z" fill="#37415C"/>
<path d="M63 72C63 75.3137 60.3137 78 57 78C53.6863 78 51 75.3137 51 72C51 68.6863 53.6863 66 57 66C60.3137 66 63 68.6863 63 72Z" fill="#37415C"/>
<path d="M91 72C91 75.3137 88.3137 78 85 78C81.6863 78 79 75.3137 79 72C79 68.6863 81.6863 66 85 66C88.3137 66 91 68.6863 91 72Z" fill="#37415C"/>
<path fill-rule="evenodd" clip-rule="evenodd" d="M21.8072 35.8797C21.1564 34.5509 22.1238 33 23.6034 33H116.397C117.876 33 118.844 34.551 118.193 35.8797L71.7962 130.606C71.0646 132.1 68.9355 132.1 68.2039 130.606L21.8072 35.8797ZM23.6034 35L70 129.727L116.397 35H23.6034Z" fill="#37415C"/>
<path fill-rule="evenodd" clip-rule="evenodd" d="M69.1092 82.7433C69.7383 80.8801 72.3966 80.9484 72.9293 82.8414L77.605 99.4583C77.9641 100.734 77.0052 102 75.6798 102H65.3932C64.0248 102 63.0605 100.657 63.4983 99.3602L69.1092 82.7433ZM71.0041 83.3831L65.3932 100L75.6798 100L71.0041 83.3831Z" fill="#37415C"/>
<path fill-rule="evenodd" clip-rule="evenodd" d="M87.7723 10.1421C88.3108 10.1263 88.7424 9.68479 88.7424 9.14251C88.7424 9.14083 88.7424 9.13837 88.7424 9.13523C88.7426 9.10419 88.7432 9.00583 88.7339 8.92157C88.7338 8.92062 88.7337 8.91953 88.7335 8.91832C88.7293 8.87906 88.7104 8.70422 88.6065 8.51865C88.5431 8.40555 88.431 8.2569 88.2439 8.14445C88.05 8.02794 87.849 7.99437 87.6835 8.00074C87.4241 8.01073 87.2378 8.12057 87.2033 8.14087C87.202 8.14164 87.201 8.14227 87.2001 8.14278C87.148 8.17302 87.1042 8.20451 87.0917 8.21345L87.0901 8.21464C87.0799 8.22192 87.0724 8.22734 87.0665 8.23154C87.0509 8.24279 87.0475 8.24528 87.0384 8.25108C86.7682 8.42298 86.4994 8.55909 86.1695 8.72615C86.1145 8.75399 86.0578 8.7827 85.9991 8.81257C84.7631 9.44181 83.951 10.5374 83.4837 11.6933C83.0709 12.7144 82.8034 13.7937 82.7665 14.9375C82.7322 16.0013 82.5566 17.0241 82.3688 18.1177C82.2888 18.5838 82.2065 19.0628 82.1321 19.5632C82.0158 20.3447 81.769 21.0982 81.4769 21.9222C81.4408 22.0243 81.4037 22.1278 81.3662 22.2328C81.1097 22.9499 80.8299 23.7323 80.642 24.5494C80.4376 25.4385 80.1894 26.26 79.8027 26.9442C79.5166 27.4504 79.2856 27.984 79.0789 28.4751C79.0492 28.5456 79.02 28.6151 78.9913 28.6836C78.8132 29.1084 78.6504 29.4967 78.4653 29.8669C78.0903 30.617 77.5 31.8342 77.5 33.0008C77.5 33.5531 77.9477 34.0008 78.5 34.0008C79.0523 34.0008 79.5 33.5531 79.5 33.0008C79.5 32.3797 79.8466 31.5765 80.2542 30.7613C80.4716 30.3264 80.6631 29.8693 80.8393 29.4486C80.8673 29.3818 80.8949 29.3159 80.9221 29.2512C81.128 28.7622 81.3203 28.3238 81.5438 27.9283C82.0748 26.9889 82.3742 25.9415 82.5912 24.9974C82.7507 24.3035 82.9874 23.6404 83.2467 22.9142C83.2847 22.8077 83.3232 22.6999 83.362 22.5904C83.6568 21.7587 83.9632 20.8468 84.1103 19.8575C84.1703 19.4542 84.2428 19.0317 84.3174 18.5965C84.5143 17.4487 84.7265 16.212 84.7655 15.002C84.7935 14.1339 84.9967 13.2871 85.338 12.4429C85.6752 11.6085 86.2073 10.9508 86.9065 10.5949C86.9566 10.5694 87.008 10.5434 87.0604 10.5169C87.2841 10.4039 87.5262 10.2816 87.7723 10.1421Z" fill="#37415C"/>
</svg>
